<svg width="27" height="25" viewBox="0 0 27 25" fill="none" xmlns="http://www.w3.org/2000/svg">
<path d="M17.2731 14.5833H16.4004L16.0911 14.3021C17.1737 13.1146 17.8255 11.5729 17.8255 9.89583C17.8255 6.15625 14.6107 3.125 10.6448 3.125C6.67889 3.125 3.46417 6.15625 3.46417 9.89583C3.46417 13.6354 6.67889 16.6667 10.6448 16.6667C12.4234 16.6667 14.0584 16.0521 15.3178 15.0312L15.616 15.3229V16.1458L21.1396 21.3437L22.7856 19.7917L17.2731 14.5833V14.5833ZM10.6448 14.5833C7.89408 14.5833 5.6736 12.4896 5.6736 9.89583C5.6736 7.30208 7.89408 5.20833 10.6448 5.20833C13.3956 5.20833 15.616 7.30208 15.616 9.89583C15.616 12.4896 13.3956 14.5833 10.6448 14.5833Z" fill="#151515"/>
</svg>
