<?xml version="1.0" encoding="UTF-8"?>
<!DOCTYPE svg PUBLIC "-//W3C//DTD SVG 1.1//EN" "http://www.w3.org/Graphics/SVG/1.1/DTD/svg11.dtd">
<svg xmlns="http://www.w3.org/2000/svg" version="1.1" width="512px" height="487px" style="shape-rendering:geometricPrecision; text-rendering:geometricPrecision; image-rendering:optimizeQuality; fill-rule:evenodd; clip-rule:evenodd" xmlns:xlink="http://www.w3.org/1999/xlink">
<g><path style="opacity:1" fill="#b59a08" d="M 198.5,60.5 C 216.5,60.5 234.5,60.5 252.5,60.5C 252.5,63.5 252.5,66.5 252.5,69.5C 234.5,69.5 216.5,69.5 198.5,69.5C 198.5,66.5 198.5,63.5 198.5,60.5 Z"/></g>
<g><path style="opacity:1" fill="#f9c20d" d="M 252.5,60.5 C 261.5,60.5 270.5,60.5 279.5,60.5C 279.5,63.5 279.5,66.5 279.5,69.5C 276.5,69.5 273.5,69.5 270.5,69.5C 264.5,69.5 258.5,69.5 252.5,69.5C 252.5,66.5 252.5,63.5 252.5,60.5 Z"/></g>
<g><path style="opacity:1" fill="#f9c110" d="M 190.5,60.5 C 193.167,60.5 195.833,60.5 198.5,60.5C 198.5,63.5 198.5,66.5 198.5,69.5C 195.833,69.5 193.167,69.5 190.5,69.5C 190.5,66.5 190.5,63.5 190.5,60.5 Z"/></g>
<g><path style="opacity:0.177" fill="#f3efb4" d="M 189.5,60.5 C 219.662,59.5019 249.995,59.1685 280.5,59.5C 281.541,62.5422 281.541,65.5422 280.5,68.5C 292.5,68.5 304.5,68.5 316.5,68.5C 316.704,71.5176 317.037,74.5176 317.5,77.5C 320.059,77.1984 322.393,77.5318 324.5,78.5C 321.5,78.5 318.5,78.5 315.5,78.5C 315.5,75.5 315.5,72.5 315.5,69.5C 303.5,69.5 291.5,69.5 279.5,69.5C 279.5,66.5 279.5,63.5 279.5,60.5C 270.5,60.5 261.5,60.5 252.5,60.5C 234.5,60.5 216.5,60.5 198.5,60.5C 195.833,60.5 193.167,60.5 190.5,60.5C 190.167,60.5 189.833,60.5 189.5,60.5 Z"/></g>
<g><path style="opacity:1" fill="#b69903" d="M 190.5,69.5 C 193.167,69.5 195.833,69.5 198.5,69.5C 198.5,72.1667 198.5,74.8333 198.5,77.5C 198.5,83.8333 198.5,90.1667 198.5,96.5C 198.5,102.5 198.5,108.5 198.5,114.5C 195.881,114.768 193.381,114.435 191,113.5C 190.5,98.8371 190.333,84.1705 190.5,69.5 Z"/></g>
<g><path style="opacity:1" fill="#fde564" d="M 198.5,69.5 C 216.5,69.5 234.5,69.5 252.5,69.5C 258.5,69.5 264.5,69.5 270.5,69.5C 270.5,72.5 270.5,75.5 270.5,78.5C 246.425,78.8229 222.425,78.4895 198.5,77.5C 198.5,74.8333 198.5,72.1667 198.5,69.5 Z"/></g>
<g><path style="opacity:1" fill="#b69a07" d="M 270.5,69.5 C 273.5,69.5 276.5,69.5 279.5,69.5C 291.5,69.5 303.5,69.5 315.5,69.5C 315.5,72.5 315.5,75.5 315.5,78.5C 306.5,78.5 297.5,78.5 288.5,78.5C 282.5,78.5 276.5,78.5 270.5,78.5C 270.5,75.5 270.5,72.5 270.5,69.5 Z"/></g>
<g><path style="opacity:0.731" fill="#ccbe6a" d="M 189.5,60.5 C 189.833,60.5 190.167,60.5 190.5,60.5C 190.5,63.5 190.5,66.5 190.5,69.5C 190.333,84.1705 190.5,98.8371 191,113.5C 193.381,114.435 195.881,114.768 198.5,114.5C 198.833,114.5 199.167,114.5 199.5,114.5C 199.196,123.584 199.529,132.584 200.5,141.5C 199.833,141.5 199.167,141.5 198.5,141.5C 198.292,132.915 198.292,124.249 198.5,115.5C 195.813,115.664 193.146,115.497 190.5,115C 189.707,113.915 189.04,112.748 188.5,111.5C 189.326,94.4596 189.659,77.4596 189.5,60.5 Z"/></g>
<g><path style="opacity:1" fill="#fee563" d="M 288.5,78.5 C 297.5,78.5 306.5,78.5 315.5,78.5C 315.5,81.5 315.5,84.5 315.5,87.5C 306.5,87.5 297.5,87.5 288.5,87.5C 288.5,84.5 288.5,81.5 288.5,78.5 Z"/></g>
<g><path style="opacity:1" fill="#fdd706" d="M 198.5,77.5 C 222.425,78.4895 246.425,78.8229 270.5,78.5C 276.5,78.5 282.5,78.5 288.5,78.5C 288.5,81.5 288.5,84.5 288.5,87.5C 297.5,87.5 306.5,87.5 315.5,87.5C 316.167,87.5 316.833,87.5 317.5,87.5C 317.5,90.1667 317.5,92.8333 317.5,95.5C 319.833,95.5 322.167,95.5 324.5,95.5C 324.5,98.8333 324.5,102.167 324.5,105.5C 321.833,105.5 319.167,105.5 316.5,105.5C 316.5,108.5 316.5,111.5 316.5,114.5C 313.5,114.5 310.5,114.5 307.5,114.5C 306.833,114.5 306.5,114.833 306.5,115.5C 303.609,114.597 300.609,114.264 297.5,114.5C 297.326,112.139 296.993,109.806 296.5,107.5C 291.002,105.79 285.335,105.124 279.5,105.5C 279.5,102.5 279.5,99.5 279.5,96.5C 252.5,96.5 225.5,96.5 198.5,96.5C 198.5,90.1667 198.5,83.8333 198.5,77.5 Z"/></g>
<g><path style="opacity:1" fill="#b69b0f" d="M 315.5,78.5 C 318.5,78.5 321.5,78.5 324.5,78.5C 324.5,81.5 324.5,84.5 324.5,87.5C 322.167,87.5 319.833,87.5 317.5,87.5C 316.833,87.5 316.167,87.5 315.5,87.5C 315.5,84.5 315.5,81.5 315.5,78.5 Z"/></g>
<g><path style="opacity:0.455" fill="#aca680" d="M 324.5,78.5 C 325.473,80.9479 325.806,83.6146 325.5,86.5C 327.735,86.2053 329.735,86.5386 331.5,87.5C 329.5,87.5 327.5,87.5 325.5,87.5C 325.5,93.5 325.5,99.5 325.5,105.5C 325.5,114.167 325.5,122.833 325.5,131.5C 328.385,131.194 331.052,131.527 333.5,132.5C 330.5,132.5 327.5,132.5 324.5,132.5C 324.5,123.5 324.5,114.5 324.5,105.5C 324.5,102.167 324.5,98.8333 324.5,95.5C 324.5,92.8333 324.5,90.1667 324.5,87.5C 324.5,84.5 324.5,81.5 324.5,78.5 Z"/></g>
<g><path style="opacity:1" fill="#121213" d="M 325.5,105.5 C 325.5,99.5 325.5,93.5 325.5,87.5C 327.5,87.5 329.5,87.5 331.5,87.5C 332.397,86.4019 333.23,86.4019 334,87.5C 334.499,93.4908 334.666,99.4908 334.5,105.5C 331.5,105.5 328.5,105.5 325.5,105.5 Z"/></g>
<g><path style="opacity:1" fill="#fee76a" d="M 317.5,87.5 C 319.833,87.5 322.167,87.5 324.5,87.5C 324.5,90.1667 324.5,92.8333 324.5,95.5C 322.167,95.5 319.833,95.5 317.5,95.5C 317.5,92.8333 317.5,90.1667 317.5,87.5 Z"/></g>
<g><path style="opacity:1" fill="#fcc206" d="M 198.5,96.5 C 225.5,96.5 252.5,96.5 279.5,96.5C 279.5,99.5 279.5,102.5 279.5,105.5C 285.335,105.124 291.002,105.79 296.5,107.5C 296.993,109.806 297.326,112.139 297.5,114.5C 300.609,114.264 303.609,114.597 306.5,115.5C 306.5,121.5 306.5,127.5 306.5,133.5C 309.5,133.5 312.5,133.5 315.5,133.5C 316.388,136.054 316.721,138.721 316.5,141.5C 319.187,141.336 321.854,141.503 324.5,142C 325.444,144.719 325.777,147.552 325.5,150.5C 328.167,150.5 330.833,150.5 333.5,150.5C 333.833,150.5 334.167,150.5 334.5,150.5C 337.5,150.5 340.5,150.5 343.5,150.5C 349.591,150.789 355.591,150.455 361.5,149.5C 361.5,152.833 361.5,156.167 361.5,159.5C 364.167,159.5 366.833,159.5 369.5,159.5C 369.5,162.5 369.5,165.5 369.5,168.5C 366.833,168.5 364.167,168.5 361.5,168.5C 361.5,171.5 361.5,174.5 361.5,177.5C 358.5,177.5 355.5,177.5 352.5,177.5C 349.5,177.5 346.5,177.5 343.5,177.5C 343.5,174.5 343.5,171.5 343.5,168.5C 340.5,168.5 337.5,168.5 334.5,168.5C 331.5,168.5 328.5,168.5 325.5,168.5C 325.5,165.5 325.5,162.5 325.5,159.5C 316.5,159.5 307.5,159.5 298.5,159.5C 298.5,156.5 298.5,153.5 298.5,150.5C 289.5,150.5 280.5,150.5 271.5,150.5C 271.5,144.5 271.5,138.5 271.5,132.5C 274.167,132.5 276.833,132.5 279.5,132.5C 279.5,126.5 279.5,120.5 279.5,114.5C 273.5,114.5 267.5,114.5 261.5,114.5C 258.5,114.5 255.5,114.5 252.5,114.5C 252.5,117.5 252.5,120.5 252.5,123.5C 249.5,123.5 246.5,123.5 243.5,123.5C 240.5,123.5 237.5,123.5 234.5,123.5C 234.5,126.5 234.5,129.5 234.5,132.5C 231.5,132.5 228.5,132.5 225.5,132.5C 222.5,132.5 219.5,132.5 216.5,132.5C 216.5,135.5 216.5,138.5 216.5,141.5C 213.5,141.5 210.5,141.5 207.5,141.5C 207.5,132.5 207.5,123.5 207.5,114.5C 204.833,114.5 202.167,114.5 199.5,114.5C 199.167,114.5 198.833,114.5 198.5,114.5C 198.5,108.5 198.5,102.5 198.5,96.5 Z"/></g>
<g><path style="opacity:1" fill="#030102" d="M 324.5,105.5 C 324.5,114.5 324.5,123.5 324.5,132.5C 318.833,132.5 313.167,132.5 307.5,132.5C 307.5,126.5 307.5,120.5 307.5,114.5C 310.5,114.5 313.5,114.5 316.5,114.5C 316.5,111.5 316.5,108.5 316.5,105.5C 319.167,105.5 321.833,105.5 324.5,105.5 Z"/></g>
<g><path style="opacity:0.999" fill="#110d0b" d="M 261.5,114.5 C 267.5,114.5 273.5,114.5 279.5,114.5C 279.5,120.5 279.5,126.5 279.5,132.5C 276.833,132.5 274.167,132.5 271.5,132.5C 271.5,138.5 271.5,144.5 271.5,150.5C 271.5,153.5 271.5,156.5 271.5,159.5C 270.523,156.713 270.19,153.713 270.5,150.5C 267.5,150.5 264.5,150.5 261.5,150.5C 261.829,144.463 261.496,138.463 260.5,132.5C 256.348,132.654 252.015,132.654 247.5,132.5C 246.167,132.5 244.833,132.5 243.5,132.5C 243.5,129.5 243.5,126.5 243.5,123.5C 246.5,123.5 249.5,123.5 252.5,123.5C 255.5,123.5 258.5,123.5 261.5,123.5C 261.5,120.5 261.5,117.5 261.5,114.5 Z"/></g>
<g><path style="opacity:1" fill="#b69a11" d="M 261.5,114.5 C 261.5,117.5 261.5,120.5 261.5,123.5C 258.5,123.5 255.5,123.5 252.5,123.5C 252.5,120.5 252.5,117.5 252.5,114.5C 255.5,114.5 258.5,114.5 261.5,114.5 Z"/></g>
<g><path style="opacity:1" fill="#b79805" d="M 199.5,114.5 C 202.167,114.5 204.833,114.5 207.5,114.5C 207.5,123.5 207.5,132.5 207.5,141.5C 205.167,141.5 202.833,141.5 200.5,141.5C 199.529,132.584 199.196,123.584 199.5,114.5 Z"/></g>
<g><path style="opacity:1" fill="#b79a0a" d="M 243.5,123.5 C 243.5,126.5 243.5,129.5 243.5,132.5C 240.5,132.5 237.5,132.5 234.5,132.5C 234.5,129.5 234.5,126.5 234.5,123.5C 237.5,123.5 240.5,123.5 243.5,123.5 Z"/></g>
<g><path style="opacity:0.997" fill="#060302" d="M 225.5,132.5 C 228.5,132.5 231.5,132.5 234.5,132.5C 237.5,132.5 240.5,132.5 243.5,132.5C 243.5,135.5 243.5,138.5 243.5,141.5C 243.167,141.5 242.833,141.5 242.5,141.5C 236.833,141.5 231.167,141.5 225.5,141.5C 225.5,138.5 225.5,135.5 225.5,132.5 Z"/></g>
<g><path style="opacity:1" fill="#b29724" d="M 307.5,114.5 C 307.5,120.5 307.5,126.5 307.5,132.5C 313.167,132.5 318.833,132.5 324.5,132.5C 327.5,132.5 330.5,132.5 333.5,132.5C 334.245,135.39 334.912,138.39 335.5,141.5C 334.523,144.287 334.19,147.287 334.5,150.5C 334.167,150.5 333.833,150.5 333.5,150.5C 333.5,147.5 333.5,144.5 333.5,141.5C 330.833,141.5 328.167,141.5 325.5,141.5C 325.5,138.833 325.5,136.167 325.5,133.5C 322.167,133.5 318.833,133.5 315.5,133.5C 312.5,133.5 309.5,133.5 306.5,133.5C 306.5,127.5 306.5,121.5 306.5,115.5C 306.5,114.833 306.833,114.5 307.5,114.5 Z"/></g>
<g><path style="opacity:1" fill="#b59a12" d="M 225.5,132.5 C 225.5,135.5 225.5,138.5 225.5,141.5C 222.5,141.5 219.5,141.5 216.5,141.5C 216.5,138.5 216.5,135.5 216.5,132.5C 219.5,132.5 222.5,132.5 225.5,132.5 Z"/></g>
<g><path style="opacity:0.306" fill="#b0afac" d="M 243.5,132.5 C 244.833,132.5 246.167,132.5 247.5,132.5C 246.791,133.404 245.791,133.737 244.5,133.5C 244.806,136.385 244.473,139.052 243.5,141.5C 243.5,138.5 243.5,135.5 243.5,132.5 Z"/></g>
<g><path style="opacity:0.013" fill="#dedede" d="M 225.5,141.5 C 231.167,141.5 236.833,141.5 242.5,141.5C 237.36,142.488 232.026,142.821 226.5,142.5C 226.806,145.385 226.473,148.052 225.5,150.5C 225.5,147.5 225.5,144.5 225.5,141.5 Z"/></g>
<g><path style="opacity:0.999" fill="#080706" d="M 198.5,141.5 C 199.167,141.5 199.833,141.5 200.5,141.5C 202.833,141.5 205.167,141.5 207.5,141.5C 210.5,141.5 213.5,141.5 216.5,141.5C 219.5,141.5 222.5,141.5 225.5,141.5C 225.5,144.5 225.5,147.5 225.5,150.5C 224.036,151.405 222.702,151.405 221.5,150.5C 219.833,150.5 218.167,150.5 216.5,150.5C 216.5,153.5 216.5,156.5 216.5,159.5C 213.833,159.5 211.167,159.5 208.5,159.5C 208.5,156.5 208.5,153.5 208.5,150.5C 207.167,150.5 205.833,150.5 204.5,150.5C 202.5,150.5 200.5,150.5 198.5,150.5C 198.5,147.5 198.5,144.5 198.5,141.5 Z"/></g>
<g><path style="opacity:1" fill="#0e0805" d="M 335.5,141.5 C 337.833,141.5 340.167,141.5 342.5,141.5C 343.477,144.287 343.81,147.287 343.5,150.5C 340.5,150.5 337.5,150.5 334.5,150.5C 334.19,147.287 334.523,144.287 335.5,141.5 Z"/></g>
<g><path style="opacity:1" fill="#fbd60a" d="M 315.5,133.5 C 318.833,133.5 322.167,133.5 325.5,133.5C 325.5,136.167 325.5,138.833 325.5,141.5C 328.167,141.5 330.833,141.5 333.5,141.5C 333.5,144.5 333.5,147.5 333.5,150.5C 330.833,150.5 328.167,150.5 325.5,150.5C 325.777,147.552 325.444,144.719 324.5,142C 321.854,141.503 319.187,141.336 316.5,141.5C 316.721,138.721 316.388,136.054 315.5,133.5 Z"/></g>
<g><path style="opacity:1" fill="#bca329" d="M 342.5,141.5 C 348.319,140.347 354.319,140.181 360.5,141C 361.444,143.719 361.777,146.552 361.5,149.5C 355.591,150.455 349.591,150.789 343.5,150.5C 343.81,147.287 343.477,144.287 342.5,141.5 Z"/></g>
<g><path style="opacity:0.721" fill="#696969" d="M 204.5,150.5 C 205.833,150.5 207.167,150.5 208.5,150.5C 208.5,153.5 208.5,156.5 208.5,159.5C 207.493,157.639 207.16,154.972 207.5,151.5C 206.209,151.737 205.209,151.404 204.5,150.5 Z"/></g>
<g><path style="opacity:0.999" fill="#171412" d="M 271.5,150.5 C 280.5,150.5 289.5,150.5 298.5,150.5C 298.5,153.5 298.5,156.5 298.5,159.5C 298.5,162.5 298.5,165.5 298.5,168.5C 297.681,165.695 297.181,162.695 297,159.5C 288.638,160.445 280.138,160.445 271.5,159.5C 271.5,156.5 271.5,153.5 271.5,150.5 Z"/></g>
<g><path style="opacity:1" fill="#171616" d="M 370.5,150.5 C 373.5,150.5 376.5,150.5 379.5,150.5C 379.666,156.509 379.499,162.509 379,168.5C 376.281,169.444 373.448,169.777 370.5,169.5C 370.5,169.167 370.5,168.833 370.5,168.5C 370.5,162.5 370.5,156.5 370.5,150.5 Z"/></g>
<g><path style="opacity:0.224" fill="#c4c4c4" d="M 221.5,150.5 C 220.432,151.434 219.099,151.768 217.5,151.5C 217.806,154.385 217.473,157.052 216.5,159.5C 216.5,156.5 216.5,153.5 216.5,150.5C 218.167,150.5 219.833,150.5 221.5,150.5 Z"/></g>
<g><path style="opacity:1" fill="#b69c2a" d="M 361.5,149.5 C 364.609,149.264 367.609,149.597 370.5,150.5C 370.5,156.5 370.5,162.5 370.5,168.5C 370.167,168.5 369.833,168.5 369.5,168.5C 369.5,165.5 369.5,162.5 369.5,159.5C 366.833,159.5 364.167,159.5 361.5,159.5C 361.5,156.167 361.5,152.833 361.5,149.5 Z"/></g>
<g><path style="opacity:1" fill="#0e0704" d="M 298.5,159.5 C 307.5,159.5 316.5,159.5 325.5,159.5C 325.5,162.5 325.5,165.5 325.5,168.5C 318.167,168.5 310.833,168.5 303.5,168.5C 301.833,168.5 300.167,168.5 298.5,168.5C 298.5,165.5 298.5,162.5 298.5,159.5 Z"/></g>
<g><path style="opacity:0.015" fill="#cfcfcd" d="M 303.5,168.5 C 310.833,168.5 318.167,168.5 325.5,168.5C 325.5,171.5 325.5,174.5 325.5,177.5C 325.167,177.5 324.833,177.5 324.5,177.5C 324.5,174.833 324.5,172.167 324.5,169.5C 317.313,169.825 310.313,169.491 303.5,168.5 Z"/></g>
<g><path style="opacity:1" fill="#bb9a06" d="M 334.5,168.5 C 337.5,168.5 340.5,168.5 343.5,168.5C 343.5,171.5 343.5,174.5 343.5,177.5C 340.5,177.5 337.5,177.5 334.5,177.5C 334.5,174.5 334.5,171.5 334.5,168.5 Z"/></g>
<g><path style="opacity:1" fill="#1e1c1c" d="M 369.5,168.5 C 369.833,168.5 370.167,168.5 370.5,168.5C 370.5,168.833 370.5,169.167 370.5,169.5C 370.664,172.187 370.497,174.854 370,177.5C 367.281,178.444 364.448,178.777 361.5,178.5C 361.5,178.167 361.5,177.833 361.5,177.5C 361.5,174.5 361.5,171.5 361.5,168.5C 364.167,168.5 366.833,168.5 369.5,168.5 Z"/></g>
<g><path style="opacity:1" fill="#100a06" d="M 325.5,168.5 C 328.5,168.5 331.5,168.5 334.5,168.5C 334.5,171.5 334.5,174.5 334.5,177.5C 331.5,177.5 328.5,177.5 325.5,177.5C 325.5,174.5 325.5,171.5 325.5,168.5 Z"/></g>
<g><path style="opacity:1" fill="#0b0706" d="M 307.5,177.5 C 313.167,177.5 318.833,177.5 324.5,177.5C 324.833,177.5 325.167,177.5 325.5,177.5C 325.5,180.5 325.5,183.5 325.5,186.5C 319.5,186.5 313.5,186.5 307.5,186.5C 307.5,183.5 307.5,180.5 307.5,177.5 Z"/></g>
<g><path style="opacity:0.999" fill="#0f0b0a" d="M 352.5,177.5 C 355.5,177.5 358.5,177.5 361.5,177.5C 361.5,177.833 361.5,178.167 361.5,178.5C 361.806,181.385 361.473,184.052 360.5,186.5C 357.833,186.5 355.167,186.5 352.5,186.5C 352.5,183.5 352.5,180.5 352.5,177.5 Z"/></g>
<g><path style="opacity:1" fill="#a16a08" d="M 325.5,177.5 C 328.5,177.5 331.5,177.5 334.5,177.5C 337.5,177.5 340.5,177.5 343.5,177.5C 346.5,177.5 349.5,177.5 352.5,177.5C 352.5,180.5 352.5,183.5 352.5,186.5C 352.167,186.5 351.833,186.5 351.5,186.5C 345.833,186.5 340.167,186.5 334.5,186.5C 334.5,189.5 334.5,192.5 334.5,195.5C 334.167,195.5 333.833,195.5 333.5,195.5C 333.5,192.5 333.5,189.5 333.5,186.5C 330.833,186.5 328.167,186.5 325.5,186.5C 325.5,183.5 325.5,180.5 325.5,177.5 Z"/></g>
<g><path style="opacity:0.999" fill="#151415" d="M 306.5,186.5 C 306.5,189.5 306.5,192.5 306.5,195.5C 303.833,195.5 301.167,195.5 298.5,195.5C 297.523,192.713 297.19,189.713 297.5,186.5C 300.5,186.5 303.5,186.5 306.5,186.5 Z"/></g>
<g><path style="opacity:0.999" fill="#060201" d="M 351.5,186.5 C 351.5,189.5 351.5,192.5 351.5,195.5C 345.833,195.5 340.167,195.5 334.5,195.5C 334.5,192.5 334.5,189.5 334.5,186.5C 340.167,186.5 345.833,186.5 351.5,186.5 Z"/></g>
<g><path style="opacity:1" fill="#b5990d" d="M 307.5,186.5 C 313.5,186.5 319.5,186.5 325.5,186.5C 328.167,186.5 330.833,186.5 333.5,186.5C 333.5,189.5 333.5,192.5 333.5,195.5C 330.833,195.5 328.167,195.5 325.5,195.5C 324.523,198.287 324.19,201.287 324.5,204.5C 321.833,204.5 319.167,204.5 316.5,204.5C 316.5,201.5 316.5,198.5 316.5,195.5C 313.5,195.5 310.5,195.5 307.5,195.5C 307.5,192.5 307.5,189.5 307.5,186.5 Z"/></g>
<g><path style="opacity:0.596" fill="#868686" d="M 351.5,186.5 C 351.833,186.5 352.167,186.5 352.5,186.5C 355.167,186.5 357.833,186.5 360.5,186.5C 358.052,187.473 355.385,187.806 352.5,187.5C 352.806,190.385 352.473,193.052 351.5,195.5C 351.5,192.5 351.5,189.5 351.5,186.5 Z"/></g>
<g><path style="opacity:0.999" fill="#130e07" d="M 307.5,195.5 C 310.5,195.5 313.5,195.5 316.5,195.5C 316.5,198.5 316.5,201.5 316.5,204.5C 313.5,204.5 310.5,204.5 307.5,204.5C 307.5,201.5 307.5,198.5 307.5,195.5 Z"/></g>
<g><path style="opacity:1" fill="#080403" d="M 325.5,195.5 C 328.167,195.5 330.833,195.5 333.5,195.5C 333.5,198.5 333.5,201.5 333.5,204.5C 330.833,204.5 328.167,204.5 325.5,204.5C 325.5,201.5 325.5,198.5 325.5,195.5 Z"/></g>
<g><path style="opacity:1" fill="#070608" d="M 406.5,196.5 C 412.167,196.5 417.833,196.5 423.5,196.5C 423.5,205.167 423.5,213.833 423.5,222.5C 420.615,222.194 417.948,222.527 415.5,223.5C 415.5,229.5 415.5,235.5 415.5,241.5C 412.5,241.5 409.5,241.5 406.5,241.5C 406.5,244.167 406.5,246.833 406.5,249.5C 403.5,249.5 400.5,249.5 397.5,249.5C 397.5,246.5 397.5,243.5 397.5,240.5C 394.5,240.5 391.5,240.5 388.5,240.5C 388.5,240.167 388.5,239.833 388.5,239.5C 388.5,236.833 388.5,234.167 388.5,231.5C 391.5,231.5 394.5,231.5 397.5,231.5C 397.5,228.5 397.5,225.5 397.5,222.5C 400.5,222.5 403.5,222.5 406.5,222.5C 406.5,219.5 406.5,216.5 406.5,213.5C 409.5,213.5 412.5,213.5 415.5,213.5C 415.5,210.5 415.5,207.5 415.5,204.5C 412.5,204.5 409.5,204.5 406.5,204.5C 406.5,201.833 406.5,199.167 406.5,196.5 Z"/></g>
<g><path style="opacity:0.791" fill="#444444" d="M 406.5,196.5 C 406.5,196.167 406.5,195.833 406.5,195.5C 412.5,195.5 418.5,195.5 424.5,195.5C 424.5,204.833 424.5,214.167 424.5,223.5C 421.5,223.5 418.5,223.5 415.5,223.5C 417.948,222.527 420.615,222.194 423.5,222.5C 423.5,213.833 423.5,205.167 423.5,196.5C 417.833,196.5 412.167,196.5 406.5,196.5 Z"/></g>
<g><path style="opacity:0.417" fill="#8a867a" d="M 307.5,177.5 C 307.5,180.5 307.5,183.5 307.5,186.5C 307.5,189.5 307.5,192.5 307.5,195.5C 307.5,198.5 307.5,201.5 307.5,204.5C 306.527,202.052 306.194,199.385 306.5,196.5C 303.615,196.806 300.948,196.473 298.5,195.5C 301.167,195.5 303.833,195.5 306.5,195.5C 306.5,192.5 306.5,189.5 306.5,186.5C 306.19,183.287 306.523,180.287 307.5,177.5 Z"/></g>
<g><path style="opacity:1" fill="#100d0a" d="M 325.5,195.5 C 325.5,198.5 325.5,201.5 325.5,204.5C 325.5,207.5 325.5,210.5 325.5,213.5C 328.167,213.5 330.833,213.5 333.5,213.5C 334.477,210.713 334.81,207.713 334.5,204.5C 337.5,204.5 340.5,204.5 343.5,204.5C 343.5,207.5 343.5,210.5 343.5,213.5C 346.5,213.5 349.5,213.5 352.5,213.5C 352.5,216.5 352.5,219.5 352.5,222.5C 340.5,222.5 328.5,222.5 316.5,222.5C 316.5,219.5 316.5,216.5 316.5,213.5C 316.5,210.5 316.5,207.5 316.5,204.5C 319.167,204.5 321.833,204.5 324.5,204.5C 324.19,201.287 324.523,198.287 325.5,195.5 Z"/></g>
<g><path style="opacity:1" fill="#0f0f11" d="M 405.5,204.5 C 406.403,207.391 406.736,210.391 406.5,213.5C 397.5,213.5 388.5,213.5 379.5,213.5C 379.167,213.5 378.833,213.5 378.5,213.5C 378.5,210.5 378.5,207.5 378.5,204.5C 387.5,204.5 396.5,204.5 405.5,204.5 Z"/></g>
<g><path style="opacity:0.443" fill="#9c9e9a" d="M 307.5,204.5 C 310.5,204.5 313.5,204.5 316.5,204.5C 316.5,207.5 316.5,210.5 316.5,213.5C 316.167,213.5 315.833,213.5 315.5,213.5C 315.5,210.833 315.5,208.167 315.5,205.5C 312.615,205.806 309.948,205.473 307.5,204.5 Z"/></g>
<g><path style="opacity:1" fill="#b19a16" d="M 325.5,204.5 C 328.167,204.5 330.833,204.5 333.5,204.5C 333.5,207.5 333.5,210.5 333.5,213.5C 330.833,213.5 328.167,213.5 325.5,213.5C 325.5,210.5 325.5,207.5 325.5,204.5 Z"/></g>
<g><path style="opacity:1" fill="#8d866b" d="M 333.5,195.5 C 333.833,195.5 334.167,195.5 334.5,195.5C 340.167,195.5 345.833,195.5 351.5,195.5C 346.025,196.489 340.358,196.822 334.5,196.5C 334.5,199.167 334.5,201.833 334.5,204.5C 334.81,207.713 334.477,210.713 333.5,213.5C 333.5,210.5 333.5,207.5 333.5,204.5C 333.5,201.5 333.5,198.5 333.5,195.5 Z"/></g>
<g><path style="opacity:1" fill="#444365" d="M 406.5,195.5 C 406.5,195.833 406.5,196.167 406.5,196.5C 406.5,199.167 406.5,201.833 406.5,204.5C 409.5,204.5 412.5,204.5 415.5,204.5C 415.5,207.5 415.5,210.5 415.5,213.5C 412.5,213.5 409.5,213.5 406.5,213.5C 406.736,210.391 406.403,207.391 405.5,204.5C 405.19,201.287 405.523,198.287 406.5,195.5 Z"/></g>
<g><path style="opacity:0.713" fill="#a79147" d="M 315.5,213.5 C 315.833,213.5 316.167,213.5 316.5,213.5C 316.5,216.5 316.5,219.5 316.5,222.5C 316.167,222.5 315.833,222.5 315.5,222.5C 315.5,219.833 315.5,217.167 315.5,214.5C 309.833,214.5 304.167,214.5 298.5,214.5C 292.5,214.5 286.5,214.5 280.5,214.5C 280.5,217.167 280.5,219.833 280.5,222.5C 280.167,222.5 279.833,222.5 279.5,222.5C 279.5,219.5 279.5,216.5 279.5,213.5C 291.5,213.5 303.5,213.5 315.5,213.5 Z"/></g>
<g><path style="opacity:1" fill="#080609" d="M 370.5,213.5 C 373.167,213.5 375.833,213.5 378.5,213.5C 378.833,213.5 379.167,213.5 379.5,213.5C 379.5,216.5 379.5,219.5 379.5,222.5C 376.5,222.5 373.5,222.5 370.5,222.5C 370.5,219.5 370.5,216.5 370.5,213.5 Z"/></g>
<g><path style="opacity:1" fill="#b59904" d="M 298.5,214.5 C 304.167,214.5 309.833,214.5 315.5,214.5C 315.5,217.167 315.5,219.833 315.5,222.5C 309.833,222.5 304.167,222.5 298.5,222.5C 298.5,219.833 298.5,217.167 298.5,214.5 Z"/></g>
<g><path style="opacity:1" fill="#383766" d="M 379.5,213.5 C 388.5,213.5 397.5,213.5 406.5,213.5C 406.5,216.5 406.5,219.5 406.5,222.5C 403.5,222.5 400.5,222.5 397.5,222.5C 397.5,225.5 397.5,228.5 397.5,231.5C 394.5,231.5 391.5,231.5 388.5,231.5C 388.5,234.167 388.5,236.833 388.5,239.5C 385.833,239.5 383.167,239.5 380.5,239.5C 380.822,233.642 380.489,227.975 379.5,222.5C 379.5,219.5 379.5,216.5 379.5,213.5 Z"/></g>
<g><path style="opacity:0.297" fill="#b7b6ab" d="M 370.5,213.5 C 370.5,216.5 370.5,219.5 370.5,222.5C 369.5,222.5 368.5,222.5 367.5,222.5C 368.965,219.634 369.965,216.634 370.5,213.5 Z"/></g>
<g><path style="opacity:1" fill="#a26b01" d="M 298.5,214.5 C 298.5,217.167 298.5,219.833 298.5,222.5C 295.167,222.5 291.833,222.5 288.5,222.5C 285.833,222.5 283.167,222.5 280.5,222.5C 280.5,219.833 280.5,217.167 280.5,214.5C 286.5,214.5 292.5,214.5 298.5,214.5 Z"/></g>
<g><path style="opacity:1" fill="#c8b14a" d="M 362.5,222.5 C 364.05,221.28 365.716,221.28 367.5,222.5C 368.5,222.5 369.5,222.5 370.5,222.5C 373.5,222.5 376.5,222.5 379.5,222.5C 379.5,228.5 379.5,234.5 379.5,240.5C 379.167,240.5 378.833,240.5 378.5,240.5C 378.5,234.833 378.5,229.167 378.5,223.5C 373.12,223.676 367.787,223.342 362.5,222.5 Z"/></g>
<g><path style="opacity:1" fill="#b69802" d="M 261.5,223.5 C 267.5,223.5 273.5,223.5 279.5,223.5C 279.5,226.167 279.5,228.833 279.5,231.5C 273.5,231.5 267.5,231.5 261.5,231.5C 261.5,228.833 261.5,226.167 261.5,223.5 Z"/></g>
<g><path style="opacity:1" fill="#fdd705" d="M 279.5,222.5 C 279.833,222.5 280.167,222.5 280.5,222.5C 283.167,222.5 285.833,222.5 288.5,222.5C 289.403,225.391 289.736,228.391 289.5,231.5C 292.167,231.5 294.833,231.5 297.5,231.5C 297.5,234.5 297.5,237.5 297.5,240.5C 285.5,240.5 273.5,240.5 261.5,240.5C 261.5,243.5 261.5,246.5 261.5,249.5C 258.5,249.5 255.5,249.5 252.5,249.5C 252.5,252.833 252.5,256.167 252.5,259.5C 258.5,259.5 264.5,259.5 270.5,259.5C 270.5,262.5 270.5,265.5 270.5,268.5C 279.5,268.5 288.5,268.5 297.5,268.5C 297.5,271.167 297.5,273.833 297.5,276.5C 303.5,276.5 309.5,276.5 315.5,276.5C 315.5,279.833 315.5,283.167 315.5,286.5C 318.713,286.81 321.713,286.477 324.5,285.5C 325.489,280.025 325.822,274.358 325.5,268.5C 328.385,268.806 331.052,268.473 333.5,267.5C 334.489,262.025 334.822,256.358 334.5,250.5C 337.385,250.806 340.052,250.473 342.5,249.5C 343.477,246.713 343.81,243.713 343.5,240.5C 346.167,240.5 348.833,240.5 351.5,240.5C 352.473,238.052 352.806,235.385 352.5,232.5C 355.385,232.806 358.052,232.473 360.5,231.5C 361.477,228.713 361.81,225.713 361.5,222.5C 361.833,222.5 362.167,222.5 362.5,222.5C 367.787,223.342 373.12,223.676 378.5,223.5C 378.5,229.167 378.5,234.833 378.5,240.5C 379.299,243.43 379.632,246.43 379.5,249.5C 376.167,249.5 372.833,249.5 369.5,249.5C 369.5,255.5 369.5,261.5 369.5,267.5C 366.5,267.5 363.5,267.5 360.5,267.5C 360.5,270.5 360.5,273.5 360.5,276.5C 357.5,276.5 354.5,276.5 351.5,276.5C 351.5,279.833 351.5,283.167 351.5,286.5C 348.881,286.232 346.381,286.565 344,287.5C 343.503,290.146 343.336,292.813 343.5,295.5C 340.5,295.5 337.5,295.5 334.5,295.5C 334.5,304.167 334.5,312.833 334.5,321.5C 337.5,321.5 340.5,321.5 343.5,321.5C 343.5,330.5 343.5,339.5 343.5,348.5C 346.5,348.5 349.5,348.5 352.5,348.5C 352.5,360.167 352.5,371.833 352.5,383.5C 355.167,383.5 357.833,383.5 360.5,383.5C 360.5,383.833 360.5,384.167 360.5,384.5C 357.5,384.5 354.5,384.5 351.5,384.5C 348.833,384.5 346.167,384.5 343.5,384.5C 343.5,381.5 343.5,378.5 343.5,375.5C 337.491,375.334 331.491,375.501 325.5,376C 324.556,378.719 324.223,381.552 324.5,384.5C 321.552,384.223 318.719,384.556 316,385.5C 315.501,391.157 315.334,396.824 315.5,402.5C 315.5,402.833 315.5,403.167 315.5,403.5C 312.833,403.5 310.167,403.5 307.5,403.5C 306.527,405.948 306.194,408.615 306.5,411.5C 303.615,411.194 300.948,411.527 298.5,412.5C 297.523,415.287 297.19,418.287 297.5,421.5C 294.833,421.5 292.167,421.5 289.5,421.5C 289.167,421.5 288.833,421.5 288.5,421.5C 264.672,420.502 240.672,420.169 216.5,420.5C 216.5,417.833 216.5,415.167 216.5,412.5C 213.5,412.5 210.5,412.5 207.5,412.5C 207.5,415.167 207.5,417.833 207.5,420.5C 201.833,420.5 196.167,420.5 190.5,420.5C 190.806,417.615 190.473,414.948 189.5,412.5C 187.052,411.527 184.385,411.194 181.5,411.5C 181.826,402.651 181.493,393.984 180.5,385.5C 178.052,384.527 175.385,384.194 172.5,384.5C 172.599,381.763 172.265,379.096 171.5,376.5C 168.713,375.523 165.713,375.19 162.5,375.5C 162.5,369.833 162.5,364.167 162.5,358.5C 162.5,357.833 162.833,357.5 163.5,357.5C 166.167,357.5 168.833,357.5 171.5,357.5C 171.5,351.833 171.5,346.167 171.5,340.5C 171.5,339.833 171.833,339.5 172.5,339.5C 175.167,339.5 177.833,339.5 180.5,339.5C 180.5,330.833 180.5,322.167 180.5,313.5C 180.5,313.167 180.5,312.833 180.5,312.5C 181.477,309.713 181.81,306.713 181.5,303.5C 184.167,303.5 186.833,303.5 189.5,303.5C 189.5,300.5 189.5,297.5 189.5,294.5C 192.5,294.5 195.5,294.5 198.5,294.5C 198.5,291.5 198.5,288.5 198.5,285.5C 201.5,285.5 204.5,285.5 207.5,285.5C 207.5,282.833 207.5,280.167 207.5,277.5C 210.713,277.81 213.713,277.477 216.5,276.5C 217.473,274.052 217.806,271.385 217.5,268.5C 223.358,268.822 229.025,268.489 234.5,267.5C 234.5,264.5 234.5,261.5 234.5,258.5C 231.5,258.5 228.5,258.5 225.5,258.5C 225.5,255.833 225.5,253.167 225.5,250.5C 225.5,249.833 225.833,249.5 226.5,249.5C 229.167,249.5 231.833,249.5 234.5,249.5C 234.264,246.391 234.597,243.391 235.5,240.5C 238.167,240.5 240.833,240.5 243.5,240.5C 246.5,240.5 249.5,240.5 252.5,240.5C 252.5,237.833 252.5,235.167 252.5,232.5C 252.5,231.833 252.833,231.5 253.5,231.5C 256.167,231.5 258.833,231.5 261.5,231.5C 267.5,231.5 273.5,231.5 279.5,231.5C 279.5,228.833 279.5,226.167 279.5,223.5C 279.5,223.167 279.5,222.833 279.5,222.5 Z"/></g>
<g><path style="opacity:1" fill="#fed808" d="M 316.5,223.5 C 328.167,223.5 339.833,223.5 351.5,223.5C 351.5,226.167 351.5,228.833 351.5,231.5C 345.5,231.5 339.5,231.5 333.5,231.5C 333.5,234.5 333.5,237.5 333.5,240.5C 327.833,240.5 322.167,240.5 316.5,240.5C 316.81,237.287 316.477,234.287 315.5,231.5C 315.194,228.615 315.527,225.948 316.5,223.5 Z"/></g>
<g><path style="opacity:1" fill="#fce464" d="M 288.5,222.5 C 291.833,222.5 295.167,222.5 298.5,222.5C 304.167,222.5 309.833,222.5 315.5,222.5C 315.833,222.5 316.167,222.5 316.5,222.5C 316.5,222.833 316.5,223.167 316.5,223.5C 315.527,225.948 315.194,228.615 315.5,231.5C 309.5,231.5 303.5,231.5 297.5,231.5C 294.833,231.5 292.167,231.5 289.5,231.5C 289.736,228.391 289.403,225.391 288.5,222.5 Z"/></g>
<g><path style="opacity:1" fill="#15100b" d="M 352.5,222.5 C 355.5,222.5 358.5,222.5 361.5,222.5C 361.81,225.713 361.477,228.713 360.5,231.5C 357.833,231.5 355.167,231.5 352.5,231.5C 352.5,228.5 352.5,225.5 352.5,222.5 Z"/></g>
<g><path style="opacity:1" fill="#a16904" d="M 261.5,223.5 C 261.5,226.167 261.5,228.833 261.5,231.5C 258.833,231.5 256.167,231.5 253.5,231.5C 253.5,228.833 253.5,226.167 253.5,223.5C 256.167,223.5 258.833,223.5 261.5,223.5 Z"/></g>
<g><path style="opacity:1" fill="#403329" d="M 379.5,222.5 C 380.489,227.975 380.822,233.642 380.5,239.5C 383.167,239.5 385.833,239.5 388.5,239.5C 388.5,239.833 388.5,240.167 388.5,240.5C 385.5,240.5 382.5,240.5 379.5,240.5C 379.5,234.5 379.5,228.5 379.5,222.5 Z"/></g>
<g><path style="opacity:0.584" fill="#b79f59" d="M 279.5,222.5 C 279.5,222.833 279.5,223.167 279.5,223.5C 273.5,223.5 267.5,223.5 261.5,223.5C 258.833,223.5 256.167,223.5 253.5,223.5C 253.5,226.167 253.5,228.833 253.5,231.5C 252.833,231.5 252.5,231.833 252.5,232.5C 249.5,232.5 246.5,232.5 243.5,232.5C 240.833,232.5 238.167,232.5 235.5,232.5C 235.5,235.167 235.5,237.833 235.5,240.5C 234.833,240.5 234.167,240.5 233.5,240.5C 233.759,236.773 234.925,233.439 237,230.5C 241.748,231.635 246.581,231.802 251.5,231C 252.444,228.281 252.777,225.448 252.5,222.5C 261.5,222.5 270.5,222.5 279.5,222.5 Z"/></g>
<g><path style="opacity:1" fill="#c19917" d="M 316.5,223.5 C 316.5,223.167 316.5,222.833 316.5,222.5C 328.5,222.5 340.5,222.5 352.5,222.5C 352.5,225.5 352.5,228.5 352.5,231.5C 355.167,231.5 357.833,231.5 360.5,231.5C 358.052,232.473 355.385,232.806 352.5,232.5C 352.806,235.385 352.473,238.052 351.5,240.5C 351.5,237.833 351.5,235.167 351.5,232.5C 345.833,232.5 340.167,232.5 334.5,232.5C 334.5,238.167 334.5,243.833 334.5,249.5C 337.167,249.5 339.833,249.5 342.5,249.5C 340.052,250.473 337.385,250.806 334.5,250.5C 334.822,256.358 334.489,262.025 333.5,267.5C 333.5,261.5 333.5,255.5 333.5,249.5C 330.833,249.5 328.167,249.5 325.5,249.5C 325.81,252.713 325.477,255.713 324.5,258.5C 324.5,255.833 324.5,253.167 324.5,250.5C 321.5,250.5 318.5,250.5 315.5,250.5C 315.5,247.5 315.5,244.5 315.5,241.5C 309.642,241.822 303.975,241.489 298.5,240.5C 298.167,240.5 297.833,240.5 297.5,240.5C 297.5,237.5 297.5,234.5 297.5,231.5C 303.5,231.5 309.5,231.5 315.5,231.5C 316.477,234.287 316.81,237.287 316.5,240.5C 322.167,240.5 327.833,240.5 333.5,240.5C 333.5,237.5 333.5,234.5 333.5,231.5C 339.5,231.5 345.5,231.5 351.5,231.5C 351.5,228.833 351.5,226.167 351.5,223.5C 339.833,223.5 328.167,223.5 316.5,223.5 Z"/></g>
<g><path style="opacity:1" fill="#a46c01" d="M 351.5,240.5 C 348.833,240.5 346.167,240.5 343.5,240.5C 343.81,243.713 343.477,246.713 342.5,249.5C 339.833,249.5 337.167,249.5 334.5,249.5C 334.5,243.833 334.5,238.167 334.5,232.5C 340.167,232.5 345.833,232.5 351.5,232.5C 351.5,235.167 351.5,237.833 351.5,240.5 Z"/></g>
<g><path style="opacity:1" fill="#b79602" d="M 243.5,232.5 C 246.5,232.5 249.5,232.5 252.5,232.5C 252.5,235.167 252.5,237.833 252.5,240.5C 249.5,240.5 246.5,240.5 243.5,240.5C 243.5,237.833 243.5,235.167 243.5,232.5 Z"/></g>
<g><path style="opacity:1" fill="#a46a02" d="M 243.5,232.5 C 243.5,235.167 243.5,237.833 243.5,240.5C 240.833,240.5 238.167,240.5 235.5,240.5C 235.5,237.833 235.5,235.167 235.5,232.5C 238.167,232.5 240.833,232.5 243.5,232.5 Z"/></g>
<g><path style="opacity:1" fill="#a46a01" d="M 298.5,240.5 C 298.5,237.833 298.5,235.167 298.5,232.5C 304.167,232.5 309.833,232.5 315.5,232.5C 315.5,235.167 315.5,237.833 315.5,240.5C 309.833,240.5 304.167,240.5 298.5,240.5 Z"/></g>
<g><path style="opacity:1" fill="#b59903" d="M 233.5,240.5 C 234.167,240.5 234.833,240.5 235.5,240.5C 234.597,243.391 234.264,246.391 234.5,249.5C 231.833,249.5 229.167,249.5 226.5,249.5C 226.5,246.833 226.5,244.167 226.5,241.5C 229.059,241.802 231.393,241.468 233.5,240.5 Z"/></g>
<g><path style="opacity:1" fill="#fed808" d="M 297.5,240.5 C 297.833,240.5 298.167,240.5 298.5,240.5C 303.975,241.489 309.642,241.822 315.5,241.5C 315.5,244.5 315.5,247.5 315.5,250.5C 318.5,250.5 321.5,250.5 324.5,250.5C 324.5,253.167 324.5,255.833 324.5,258.5C 315.833,258.5 307.167,258.5 298.5,258.5C 298.81,255.287 298.477,252.287 297.5,249.5C 297.5,246.5 297.5,243.5 297.5,240.5 Z"/></g>
<g><path style="opacity:1" fill="#fee562" d="M 297.5,240.5 C 297.5,243.5 297.5,246.5 297.5,249.5C 285.5,249.5 273.5,249.5 261.5,249.5C 261.5,246.5 261.5,243.5 261.5,240.5C 273.5,240.5 285.5,240.5 297.5,240.5 Z"/></g>
<g><path style="opacity:1" fill="#a36a02" d="M 316.5,241.5 C 319.167,241.5 321.833,241.5 324.5,241.5C 324.5,244.167 324.5,246.833 324.5,249.5C 321.833,249.5 319.167,249.5 316.5,249.5C 316.5,246.833 316.5,244.167 316.5,241.5 Z"/></g>
<g><path style="opacity:0.694" fill="#b3965d" d="M 144.5,250.5 C 144.5,250.167 144.5,249.833 144.5,249.5C 156.833,249.5 169.167,249.5 181.5,249.5C 181.5,252.5 181.5,255.5 181.5,258.5C 184.167,258.5 186.833,258.5 189.5,258.5C 189.5,258.833 189.5,259.167 189.5,259.5C 186.5,259.5 183.5,259.5 180.5,259.5C 180.5,259.167 180.5,258.833 180.5,258.5C 180.5,255.833 180.5,253.167 180.5,250.5C 168.5,250.5 156.5,250.5 144.5,250.5 Z"/></g>
<g><path style="opacity:1" fill="#0b0b0d" d="M 144.5,249.5 C 144.5,249.833 144.5,250.167 144.5,250.5C 144.5,253.167 144.5,255.833 144.5,258.5C 144.167,258.5 143.833,258.5 143.5,258.5C 131.833,258.5 120.167,258.5 108.5,258.5C 108.108,255.676 108.108,252.676 108.5,249.5C 120.5,249.5 132.5,249.5 144.5,249.5 Z"/></g>
<g><path style="opacity:1" fill="#a26a03" d="M 144.5,250.5 C 156.5,250.5 168.5,250.5 180.5,250.5C 180.5,253.167 180.5,255.833 180.5,258.5C 168.5,258.5 156.5,258.5 144.5,258.5C 144.5,255.833 144.5,253.167 144.5,250.5 Z"/></g>
<g><path style="opacity:0.761" fill="#c3b265" d="M 233.5,240.5 C 231.393,241.468 229.059,241.802 226.5,241.5C 226.5,244.167 226.5,246.833 226.5,249.5C 225.833,249.5 225.5,249.833 225.5,250.5C 222.833,250.5 220.167,250.5 217.5,250.5C 217.5,253.167 217.5,255.833 217.5,258.5C 217.5,261.5 217.5,264.5 217.5,267.5C 217.167,267.5 216.833,267.5 216.5,267.5C 216.5,261.5 216.5,255.5 216.5,249.5C 219.482,249.037 222.482,248.704 225.5,248.5C 224.498,245.89 224.665,243.224 226,240.5C 228.354,240.108 230.854,240.108 233.5,240.5 Z"/></g>
<g><path style="opacity:1" fill="#b59804" d="M 225.5,250.5 C 225.5,253.167 225.5,255.833 225.5,258.5C 222.833,258.5 220.167,258.5 217.5,258.5C 217.5,255.833 217.5,253.167 217.5,250.5C 220.167,250.5 222.833,250.5 225.5,250.5 Z"/></g>
<g><path style="opacity:1" fill="#b6981d" d="M 379.5,240.5 C 382.5,240.5 385.5,240.5 388.5,240.5C 391.5,240.5 394.5,240.5 397.5,240.5C 397.5,243.5 397.5,246.5 397.5,249.5C 400.5,249.5 403.5,249.5 406.5,249.5C 406.5,252.5 406.5,255.5 406.5,258.5C 406.5,258.833 406.5,259.167 406.5,259.5C 406.5,265.167 406.5,270.833 406.5,276.5C 406.167,276.5 405.833,276.5 405.5,276.5C 405.5,270.5 405.5,264.5 405.5,258.5C 402.5,258.5 399.5,258.5 396.5,258.5C 393.833,258.5 391.167,258.5 388.5,258.5C 388.5,255.833 388.5,253.167 388.5,250.5C 390.948,249.527 393.615,249.194 396.5,249.5C 396.5,246.833 396.5,244.167 396.5,241.5C 390.642,241.822 384.975,241.489 379.5,240.5 Z"/></g>
<g><path style="opacity:1" fill="#a46b01" d="M 333.5,267.5 C 330.5,267.5 327.5,267.5 324.5,267.5C 324.5,264.5 324.5,261.5 324.5,258.5C 325.477,255.713 325.81,252.713 325.5,249.5C 328.167,249.5 330.833,249.5 333.5,249.5C 333.5,255.5 333.5,261.5 333.5,267.5 Z"/></g>
<g><path style="opacity:0.766" fill="#505050" d="M 108.5,258.5 C 108.5,258.833 108.5,259.167 108.5,259.5C 99.3178,259.173 90.3178,259.507 81.5,260.5C 80.9569,260.44 80.6236,260.107 80.5,259.5C 89.8096,258.502 99.1429,258.168 108.5,258.5 Z"/></g>
<g><path style="opacity:1" fill="#e4b827" d="M 144.5,258.5 C 156.5,258.5 168.5,258.5 180.5,258.5C 180.5,258.833 180.5,259.167 180.5,259.5C 168.833,259.5 157.167,259.5 145.5,259.5C 145.5,262.167 145.5,264.833 145.5,267.5C 145.167,267.5 144.833,267.5 144.5,267.5C 144.5,264.5 144.5,261.5 144.5,258.5 Z"/></g>
<g><path style="opacity:1" fill="#fde34f" d="M 352.5,249.5 C 355.448,249.223 358.281,249.556 361,250.5C 361.498,253.482 361.665,256.482 361.5,259.5C 358.5,259.5 355.5,259.5 352.5,259.5C 352.5,262.167 352.5,264.833 352.5,267.5C 349.5,267.5 346.5,267.5 343.5,267.5C 343.5,264.5 343.5,261.5 343.5,258.5C 346.167,258.5 348.833,258.5 351.5,258.5C 351.264,255.391 351.597,252.391 352.5,249.5 Z"/></g>
<g><path style="opacity:1" fill="#151415" d="M 108.5,259.5 C 108.5,262.167 108.5,264.833 108.5,267.5C 102.5,267.5 96.5,267.5 90.5,267.5C 90.5,270.5 90.5,273.5 90.5,276.5C 90.5,276.833 90.5,277.167 90.5,277.5C 84.2424,277.81 78.0758,277.476 72,276.5C 71.3333,273.833 71.3333,271.167 72,268.5C 75.0757,267.712 78.2423,267.212 81.5,267C 80.232,264.837 80.232,262.67 81.5,260.5C 90.3178,259.507 99.3178,259.173 108.5,259.5 Z"/></g>
<g><path style="opacity:1" fill="#0f0a08" d="M 189.5,258.5 C 192.5,258.5 195.5,258.5 198.5,258.5C 198.5,261.5 198.5,264.5 198.5,267.5C 195.5,267.5 192.5,267.5 189.5,267.5C 189.5,264.833 189.5,262.167 189.5,259.5C 189.5,259.167 189.5,258.833 189.5,258.5 Z"/></g>
<g><path style="opacity:1" fill="#bf9b09" d="M 261.5,249.5 C 273.5,249.5 285.5,249.5 297.5,249.5C 298.477,252.287 298.81,255.287 298.5,258.5C 307.167,258.5 315.833,258.5 324.5,258.5C 324.5,261.5 324.5,264.5 324.5,267.5C 327.5,267.5 330.5,267.5 333.5,267.5C 331.052,268.473 328.385,268.806 325.5,268.5C 325.822,274.358 325.489,280.025 324.5,285.5C 321.713,286.477 318.713,286.81 315.5,286.5C 315.5,283.167 315.5,279.833 315.5,276.5C 309.5,276.5 303.5,276.5 297.5,276.5C 297.5,273.833 297.5,271.167 297.5,268.5C 288.5,268.5 279.5,268.5 270.5,268.5C 270.5,265.5 270.5,262.5 270.5,259.5C 264.5,259.5 258.5,259.5 252.5,259.5C 252.5,256.167 252.5,252.833 252.5,249.5C 255.5,249.5 258.5,249.5 261.5,249.5 Z"/></g>
<g><path style="opacity:1" fill="#a46a01" d="M 253.5,250.5 C 268.167,250.5 282.833,250.5 297.5,250.5C 297.5,253.5 297.5,256.5 297.5,259.5C 303.833,259.5 310.167,259.5 316.5,259.5C 316.5,262.167 316.5,264.833 316.5,267.5C 301.5,267.5 286.5,267.5 271.5,267.5C 271.5,264.5 271.5,261.5 271.5,258.5C 265.5,258.5 259.5,258.5 253.5,258.5C 253.5,255.833 253.5,253.167 253.5,250.5 Z"/></g>
<g><path style="opacity:1" fill="#fed602" d="M 388.5,258.5 C 391.167,258.5 393.833,258.5 396.5,258.5C 397.455,264.409 397.789,270.409 397.5,276.5C 400.167,276.5 402.833,276.5 405.5,276.5C 405.833,276.5 406.167,276.5 406.5,276.5C 408.948,277.473 411.615,277.806 414.5,277.5C 414.194,280.385 414.527,283.052 415.5,285.5C 415.293,290.993 415.626,296.66 416.5,302.5C 419.084,303.393 421.751,303.726 424.5,303.5C 424.5,303.833 424.5,304.167 424.5,304.5C 424.162,307.157 424.829,309.49 426.5,311.5C 424.562,320.973 423.895,330.64 424.5,340.5C 415.494,340.666 406.494,340.5 397.5,340C 396.556,337.281 396.223,334.448 396.5,331.5C 393.552,331.777 390.719,331.444 388,330.5C 387.501,324.843 387.334,319.176 387.5,313.5C 385.143,313.337 382.81,313.503 380.5,314C 380.833,314.333 381.167,314.667 381.5,315C 380.446,317.382 379.779,319.882 379.5,322.5C 372.627,321.208 369.293,324.042 369.5,331C 366.854,331.497 364.187,331.664 361.5,331.5C 361.5,325.167 361.5,318.833 361.5,312.5C 358.5,312.5 355.5,312.5 352.5,312.5C 352.5,309.833 352.5,307.167 352.5,304.5C 355.5,304.5 358.5,304.5 361.5,304.5C 361.5,301.5 361.5,298.5 361.5,295.5C 367.5,295.5 373.5,295.5 379.5,295.5C 379.5,289.5 379.5,283.5 379.5,277.5C 382.5,277.5 385.5,277.5 388.5,277.5C 388.5,271.167 388.5,264.833 388.5,258.5 Z"/></g>
<g><path style="opacity:1" fill="#010000" d="M 406.5,259.5 C 409.167,259.5 411.833,259.5 414.5,259.5C 414.5,265.167 414.5,270.833 414.5,276.5C 411.833,276.5 409.167,276.5 406.5,276.5C 406.5,270.833 406.5,265.167 406.5,259.5 Z"/></g>
<g><path style="opacity:1" fill="#a26c02" d="M 217.5,258.5 C 220.167,258.5 222.833,258.5 225.5,258.5C 228.5,258.5 231.5,258.5 234.5,258.5C 234.5,261.5 234.5,264.5 234.5,267.5C 228.833,267.5 223.167,267.5 217.5,267.5C 217.5,264.5 217.5,261.5 217.5,258.5 Z"/></g>
<g><path style="opacity:1" fill="#fbc206" d="M 396.5,258.5 C 399.5,258.5 402.5,258.5 405.5,258.5C 405.5,264.5 405.5,270.5 405.5,276.5C 402.833,276.5 400.167,276.5 397.5,276.5C 397.789,270.409 397.455,264.409 396.5,258.5 Z"/></g>
<g><path style="opacity:0.769" fill="#3e3d3d" d="M 406.5,259.5 C 406.5,259.167 406.5,258.833 406.5,258.5C 409.5,258.5 412.5,258.5 415.5,258.5C 415.5,264.5 415.5,270.5 415.5,276.5C 415.167,276.5 414.833,276.5 414.5,276.5C 414.5,270.833 414.5,265.167 414.5,259.5C 411.833,259.5 409.167,259.5 406.5,259.5 Z"/></g>
<g><path style="opacity:1" fill="#fdd705" d="M 180.5,259.5 C 180.5,262.167 180.5,264.833 180.5,267.5C 183.5,267.5 186.5,267.5 189.5,267.5C 189.5,267.833 189.5,268.167 189.5,268.5C 189.5,271.167 189.5,273.833 189.5,276.5C 186.5,276.5 183.5,276.5 180.5,276.5C 180.5,279.5 180.5,282.5 180.5,285.5C 165.833,285.5 151.167,285.5 136.5,285.5C 136.5,279.833 136.5,274.167 136.5,268.5C 139.167,268.5 141.833,268.5 144.5,268.5C 144.5,271.167 144.5,273.833 144.5,276.5C 150.176,276.666 155.843,276.499 161.5,276C 162.833,273.333 162.833,270.667 161.5,268C 156.177,267.501 150.844,267.334 145.5,267.5C 145.5,264.833 145.5,262.167 145.5,259.5C 157.167,259.5 168.833,259.5 180.5,259.5 Z"/></g>
<g><path style="opacity:1" fill="#a56e05" d="M 180.5,259.5 C 183.5,259.5 186.5,259.5 189.5,259.5C 189.5,262.167 189.5,264.833 189.5,267.5C 186.5,267.5 183.5,267.5 180.5,267.5C 180.5,264.833 180.5,262.167 180.5,259.5 Z"/></g>
<g><path style="opacity:1" fill="#383766" d="M 108.5,258.5 C 120.167,258.5 131.833,258.5 143.5,258.5C 143.5,261.167 143.5,263.833 143.5,266.5C 140.615,266.194 137.948,266.527 135.5,267.5C 134.51,273.31 134.177,279.31 134.5,285.5C 131.833,285.5 129.167,285.5 126.5,285.5C 126.5,282.5 126.5,279.5 126.5,276.5C 114.5,276.5 102.5,276.5 90.5,276.5C 90.5,273.5 90.5,270.5 90.5,267.5C 96.5,267.5 102.5,267.5 108.5,267.5C 108.5,264.833 108.5,262.167 108.5,259.5C 108.5,259.167 108.5,258.833 108.5,258.5 Z"/></g>
<g><path style="opacity:1" fill="#ddb60d" d="M 388.5,250.5 C 388.5,253.167 388.5,255.833 388.5,258.5C 388.5,264.833 388.5,271.167 388.5,277.5C 385.5,277.5 382.5,277.5 379.5,277.5C 379.5,283.5 379.5,289.5 379.5,295.5C 373.5,295.5 367.5,295.5 361.5,295.5C 361.5,295.167 361.5,294.833 361.5,294.5C 358.5,294.5 355.5,294.5 352.5,294.5C 354.948,293.527 357.615,293.194 360.5,293.5C 360.5,290.833 360.5,288.167 360.5,285.5C 363.5,285.5 366.5,285.5 369.5,285.5C 369.5,282.5 369.5,279.5 369.5,276.5C 372.5,276.5 375.5,276.5 378.5,276.5C 378.5,270.5 378.5,264.5 378.5,258.5C 381.5,258.5 384.5,258.5 387.5,258.5C 387.194,255.615 387.527,252.948 388.5,250.5 Z"/></g>
<g><path style="opacity:1" fill="#b79900" d="M 379.5,259.5 C 382.167,259.5 384.833,259.5 387.5,259.5C 387.5,265.167 387.5,270.833 387.5,276.5C 384.833,276.5 382.167,276.5 379.5,276.5C 379.5,270.833 379.5,265.167 379.5,259.5 Z"/></g>
<g><path style="opacity:1" fill="#463426" d="M 143.5,258.5 C 143.833,258.5 144.167,258.5 144.5,258.5C 144.5,261.5 144.5,264.5 144.5,267.5C 141.5,267.5 138.5,267.5 135.5,267.5C 137.948,266.527 140.615,266.194 143.5,266.5C 143.5,263.833 143.5,261.167 143.5,258.5 Z"/></g>
<g><path style="opacity:0.632" fill="#b49e65" d="M 198.5,258.5 C 199.477,261.287 199.81,264.287 199.5,267.5C 205.167,267.5 210.833,267.5 216.5,267.5C 216.5,267.833 216.5,268.167 216.5,268.5C 210.5,268.5 204.5,268.5 198.5,268.5C 195.5,268.5 192.5,268.5 189.5,268.5C 189.5,268.167 189.5,267.833 189.5,267.5C 192.5,267.5 195.5,267.5 198.5,267.5C 198.5,264.5 198.5,261.5 198.5,258.5 Z"/></g>
<g><path style="opacity:1" fill="#e3b418" d="M 216.5,267.5 C 216.833,267.5 217.167,267.5 217.5,267.5C 223.167,267.5 228.833,267.5 234.5,267.5C 229.025,268.489 223.358,268.822 217.5,268.5C 217.806,271.385 217.473,274.052 216.5,276.5C 216.5,273.833 216.5,271.167 216.5,268.5C 216.5,268.167 216.5,267.833 216.5,267.5 Z"/></g>
<g><path style="opacity:1" fill="#fcc202" d="M 189.5,268.5 C 192.5,268.5 195.5,268.5 198.5,268.5C 198.5,271.167 198.5,273.833 198.5,276.5C 204.5,276.5 210.5,276.5 216.5,276.5C 213.713,277.477 210.713,277.81 207.5,277.5C 207.5,280.167 207.5,282.833 207.5,285.5C 204.5,285.5 201.5,285.5 198.5,285.5C 198.5,288.5 198.5,291.5 198.5,294.5C 195.5,294.5 192.5,294.5 189.5,294.5C 189.5,297.5 189.5,300.5 189.5,303.5C 186.833,303.5 184.167,303.5 181.5,303.5C 181.5,300.167 181.5,296.833 181.5,293.5C 166.5,293.5 151.5,293.5 136.5,293.5C 136.5,290.833 136.5,288.167 136.5,285.5C 151.167,285.5 165.833,285.5 180.5,285.5C 180.5,282.5 180.5,279.5 180.5,276.5C 183.5,276.5 186.5,276.5 189.5,276.5C 189.5,273.833 189.5,271.167 189.5,268.5 Z"/></g>
<g><path style="opacity:1" fill="#a46b01" d="M 198.5,268.5 C 204.5,268.5 210.5,268.5 216.5,268.5C 216.5,271.167 216.5,273.833 216.5,276.5C 210.5,276.5 204.5,276.5 198.5,276.5C 198.5,273.833 198.5,271.167 198.5,268.5 Z"/></g>
<g><path style="opacity:1" fill="#fee659" d="M 144.5,267.5 C 144.833,267.5 145.167,267.5 145.5,267.5C 150.844,267.334 156.177,267.501 161.5,268C 162.833,270.667 162.833,273.333 161.5,276C 155.843,276.499 150.176,276.666 144.5,276.5C 144.5,273.833 144.5,271.167 144.5,268.5C 144.5,268.167 144.5,267.833 144.5,267.5 Z"/></g>
<g><path style="opacity:1" fill="#191615" d="M 135.5,267.5 C 135.5,276.5 135.5,285.5 135.5,294.5C 150.676,294.171 165.676,294.504 180.5,295.5C 165.5,295.5 150.5,295.5 135.5,295.5C 126.5,295.5 117.5,295.5 108.5,295.5C 108.5,292.5 108.5,289.5 108.5,286.5C 102.463,286.829 96.4632,286.496 90.5,285.5C 89.1764,282.802 89.1764,280.136 90.5,277.5C 90.5,277.167 90.5,276.833 90.5,276.5C 102.5,276.5 114.5,276.5 126.5,276.5C 126.5,279.5 126.5,282.5 126.5,285.5C 129.167,285.5 131.833,285.5 134.5,285.5C 134.177,279.31 134.51,273.31 135.5,267.5 Z"/></g>
<g><path style="opacity:1" fill="#b79801" d="M 361.5,294.5 C 361.5,291.833 361.5,289.167 361.5,286.5C 364.5,286.5 367.5,286.5 370.5,286.5C 370.5,283.5 370.5,280.5 370.5,277.5C 373.167,277.5 375.833,277.5 378.5,277.5C 378.5,283.167 378.5,288.833 378.5,294.5C 372.833,294.5 367.167,294.5 361.5,294.5 Z"/></g>
<g><path style="opacity:0.847" fill="#3f3d3e" d="M 415.5,277.5 C 415.5,277.167 415.5,276.833 415.5,276.5C 418.5,276.5 421.5,276.5 424.5,276.5C 424.5,279.5 424.5,282.5 424.5,285.5C 427.5,285.5 430.5,285.5 433.5,285.5C 433.5,291.5 433.5,297.5 433.5,303.5C 433.167,303.5 432.833,303.5 432.5,303.5C 432.5,297.833 432.5,292.167 432.5,286.5C 429.833,286.5 427.167,286.5 424.5,286.5C 423.833,286.5 423.5,286.167 423.5,285.5C 423.5,282.833 423.5,280.167 423.5,277.5C 420.833,277.5 418.167,277.5 415.5,277.5 Z"/></g>
<g><path style="opacity:1" fill="#b09135" d="M 406.5,276.5 C 409.167,276.5 411.833,276.5 414.5,276.5C 414.833,276.5 415.167,276.5 415.5,276.5C 415.5,276.833 415.5,277.167 415.5,277.5C 415.5,280.167 415.5,282.833 415.5,285.5C 414.527,283.052 414.194,280.385 414.5,277.5C 411.615,277.806 408.948,277.473 406.5,276.5 Z"/></g>
<g><path style="opacity:1" fill="#050102" d="M 415.5,277.5 C 418.167,277.5 420.833,277.5 423.5,277.5C 423.5,280.167 423.5,282.833 423.5,285.5C 420.833,285.5 418.167,285.5 415.5,285.5C 415.5,282.833 415.5,280.167 415.5,277.5 Z"/></g>
<g><path style="opacity:1" fill="#fee666" d="M 225.5,276.5 C 237.5,276.5 249.5,276.5 261.5,276.5C 261.5,279.833 261.5,283.167 261.5,286.5C 264.685,286.02 267.519,286.686 270,288.5C 270.5,296.493 270.666,304.493 270.5,312.5C 264.5,312.5 258.5,312.5 252.5,312.5C 252.5,315.5 252.5,318.5 252.5,321.5C 240.833,321.5 229.167,321.5 217.5,321.5C 217.664,318.813 217.497,316.146 217,313.5C 214.281,312.556 211.448,312.223 208.5,312.5C 208.5,303.833 208.5,295.167 208.5,286.5C 214.167,286.5 219.833,286.5 225.5,286.5C 225.5,283.167 225.5,279.833 225.5,276.5 Z"/></g>
<g><path style="opacity:1" fill="#a36a02" d="M 324.5,285.5 C 321.833,285.5 319.167,285.5 316.5,285.5C 316.5,282.5 316.5,279.5 316.5,276.5C 319.167,276.5 321.833,276.5 324.5,276.5C 324.5,279.5 324.5,282.5 324.5,285.5 Z"/></g>
<g><path style="opacity:1" fill="#020002" d="M 424.5,286.5 C 427.167,286.5 429.833,286.5 432.5,286.5C 432.5,292.167 432.5,297.833 432.5,303.5C 429.833,303.5 427.167,303.5 424.5,303.5C 424.5,297.833 424.5,292.167 424.5,286.5 Z"/></g>
<g><path style="opacity:1" fill="#f2bb17" d="M 415.5,285.5 C 418.167,285.5 420.833,285.5 423.5,285.5C 423.5,286.167 423.833,286.5 424.5,286.5C 424.5,292.167 424.5,297.833 424.5,303.5C 421.751,303.726 419.084,303.393 416.5,302.5C 415.626,296.66 415.293,290.993 415.5,285.5 Z"/></g>
<g><path style="opacity:1" fill="#e6c039" d="M 135.5,267.5 C 138.5,267.5 141.5,267.5 144.5,267.5C 144.5,267.833 144.5,268.167 144.5,268.5C 141.833,268.5 139.167,268.5 136.5,268.5C 136.5,274.167 136.5,279.833 136.5,285.5C 136.5,288.167 136.5,290.833 136.5,293.5C 151.5,293.5 166.5,293.5 181.5,293.5C 181.5,296.833 181.5,300.167 181.5,303.5C 181.81,306.713 181.477,309.713 180.5,312.5C 180.5,306.833 180.5,301.167 180.5,295.5C 165.676,294.504 150.676,294.171 135.5,294.5C 135.5,285.5 135.5,276.5 135.5,267.5 Z"/></g>
<g><path style="opacity:1" fill="#121111" d="M 135.5,295.5 C 150.5,295.5 165.5,295.5 180.5,295.5C 180.5,301.167 180.5,306.833 180.5,312.5C 177.5,312.5 174.5,312.5 171.5,312.5C 171.5,309.833 171.5,307.167 171.5,304.5C 159.5,304.5 147.5,304.5 135.5,304.5C 135.5,301.5 135.5,298.5 135.5,295.5 Z"/></g>
<g><path style="opacity:1" fill="#7c6220" d="M 352.5,294.5 C 355.5,294.5 358.5,294.5 361.5,294.5C 361.5,294.833 361.5,295.167 361.5,295.5C 361.5,298.5 361.5,301.5 361.5,304.5C 358.5,304.5 355.5,304.5 352.5,304.5C 352.5,304.167 352.5,303.833 352.5,303.5C 352.167,303.5 351.833,303.5 351.5,303.5C 351.19,300.287 351.523,297.287 352.5,294.5 Z"/></g>
<g><path style="opacity:1" fill="#040002" d="M 352.5,303.5 C 352.5,300.833 352.5,298.167 352.5,295.5C 355.167,295.5 357.833,295.5 360.5,295.5C 360.5,298.167 360.5,300.833 360.5,303.5C 357.833,303.5 355.167,303.5 352.5,303.5 Z"/></g>
<g><path style="opacity:1" fill="#030101" d="M 433.5,304.5 C 436.167,304.5 438.833,304.5 441.5,304.5C 441.5,310.167 441.5,315.833 441.5,321.5C 438.833,321.5 436.167,321.5 433.5,321.5C 433.5,315.833 433.5,310.167 433.5,304.5 Z"/></g>
<g><path style="opacity:1" fill="#fcc203" d="M 424.5,304.5 C 427.167,304.5 429.833,304.5 432.5,304.5C 432.178,310.358 432.511,316.025 433.5,321.5C 433.5,321.833 433.5,322.167 433.5,322.5C 433.5,325.167 433.5,327.833 433.5,330.5C 435.948,331.473 438.615,331.806 441.5,331.5C 441.5,337.167 441.5,342.833 441.5,348.5C 438.615,348.194 435.948,348.527 433.5,349.5C 433.5,352.167 433.5,354.833 433.5,357.5C 433.5,360.5 433.5,363.5 433.5,366.5C 433.5,366.833 433.5,367.167 433.5,367.5C 433.167,367.5 432.833,367.5 432.5,367.5C 429.833,367.5 427.167,367.5 424.5,367.5C 424.5,370.167 424.5,372.833 424.5,375.5C 415.5,375.5 406.5,375.5 397.5,375.5C 397.5,372.5 397.5,369.5 397.5,366.5C 394.5,366.5 391.5,366.5 388.5,366.5C 388.5,375.5 388.5,384.5 388.5,393.5C 385.287,393.19 382.287,393.523 379.5,394.5C 378.511,399.975 378.178,405.642 378.5,411.5C 375.833,411.5 373.167,411.5 370.5,411.5C 370.5,414.5 370.5,417.5 370.5,420.5C 370.5,421.167 370.167,421.5 369.5,421.5C 363.667,420.6 358,420.6 352.5,421.5C 351.527,423.948 351.194,426.615 351.5,429.5C 348.833,429.5 346.167,429.5 343.5,429.5C 343.5,426.833 343.5,424.167 343.5,421.5C 340.5,421.5 337.5,421.5 334.5,421.5C 334.5,424.167 334.5,426.833 334.5,429.5C 328.167,429.5 321.833,429.5 315.5,429.5C 315.5,426.833 315.5,424.167 315.5,421.5C 312.833,421.5 310.167,421.5 307.5,421.5C 307.5,418.5 307.5,415.5 307.5,412.5C 310.167,412.5 312.833,412.5 315.5,412.5C 324.833,412.5 334.167,412.5 343.5,412.5C 343.5,409.5 343.5,406.5 343.5,403.5C 346.5,403.5 349.5,403.5 352.5,403.5C 352.5,400.5 352.5,397.5 352.5,394.5C 355.5,394.5 358.5,394.5 361.5,394.5C 361.5,391.5 361.5,388.5 361.5,385.5C 364.5,385.5 367.5,385.5 370.5,385.5C 370.5,370.167 370.5,354.833 370.5,339.5C 367.5,339.5 364.5,339.5 361.5,339.5C 361.5,336.833 361.5,334.167 361.5,331.5C 364.187,331.664 366.854,331.497 369.5,331C 369.293,324.042 372.627,321.208 379.5,322.5C 379.779,319.882 380.446,317.382 381.5,315C 381.167,314.667 380.833,314.333 380.5,314C 382.81,313.503 385.143,313.337 387.5,313.5C 387.334,319.176 387.501,324.843 388,330.5C 390.719,331.444 393.552,331.777 396.5,331.5C 396.223,334.448 396.556,337.281 397.5,340C 406.494,340.5 415.494,340.666 424.5,340.5C 423.895,330.64 424.562,320.973 426.5,311.5C 424.829,309.49 424.162,307.157 424.5,304.5 Z"/></g>
<g><path style="opacity:1" fill="#b19735" d="M 424.5,304.5 C 424.5,304.167 424.5,303.833 424.5,303.5C 427.167,303.5 429.833,303.5 432.5,303.5C 432.833,303.5 433.167,303.5 433.5,303.5C 433.5,303.833 433.5,304.167 433.5,304.5C 433.5,310.167 433.5,315.833 433.5,321.5C 432.511,316.025 432.178,310.358 432.5,304.5C 429.833,304.5 427.167,304.5 424.5,304.5 Z"/></g>
<g><path style="opacity:0.825" fill="#38363a" d="M 433.5,304.5 C 433.5,304.167 433.5,303.833 433.5,303.5C 436.5,303.5 439.5,303.5 442.5,303.5C 442.5,309.5 442.5,315.5 442.5,321.5C 442.167,321.5 441.833,321.5 441.5,321.5C 441.5,315.833 441.5,310.167 441.5,304.5C 438.833,304.5 436.167,304.5 433.5,304.5 Z"/></g>
<g><path style="opacity:1" fill="#b59902" d="M 180.5,313.5 C 180.5,322.167 180.5,330.833 180.5,339.5C 177.833,339.5 175.167,339.5 172.5,339.5C 172.5,330.833 172.5,322.167 172.5,313.5C 175.167,313.5 177.833,313.5 180.5,313.5 Z"/></g>
<g><path style="opacity:1" fill="#080606" d="M 442.5,322.5 C 445.167,322.5 447.833,322.5 450.5,322.5C 450.172,334.012 450.505,345.346 451.5,356.5C 449.012,358.388 446.012,359.055 442.5,358.5C 442.5,355.5 442.5,352.5 442.5,349.5C 442.5,343.167 442.5,336.833 442.5,330.5C 442.5,327.833 442.5,325.167 442.5,322.5 Z"/></g>
<g><path style="opacity:0.845" fill="#2e2e2e" d="M 442.5,322.5 C 442.5,322.167 442.5,321.833 442.5,321.5C 445.5,321.5 448.5,321.5 451.5,321.5C 451.5,333.167 451.5,344.833 451.5,356.5C 450.505,345.346 450.172,334.012 450.5,322.5C 447.833,322.5 445.167,322.5 442.5,322.5 Z"/></g>
<g><path style="opacity:1" fill="#daaf09" d="M 351.5,303.5 C 351.833,303.5 352.167,303.5 352.5,303.5C 352.5,303.833 352.5,304.167 352.5,304.5C 352.5,307.167 352.5,309.833 352.5,312.5C 355.5,312.5 358.5,312.5 361.5,312.5C 361.5,318.833 361.5,325.167 361.5,331.5C 361.5,334.167 361.5,336.833 361.5,339.5C 364.5,339.5 367.5,339.5 370.5,339.5C 370.5,354.833 370.5,370.167 370.5,385.5C 367.5,385.5 364.5,385.5 361.5,385.5C 361.5,385.167 361.5,384.833 361.5,384.5C 361.167,384.5 360.833,384.5 360.5,384.5C 360.5,384.167 360.5,383.833 360.5,383.5C 360.5,369.167 360.5,354.833 360.5,340.5C 357.615,340.806 354.948,340.473 352.5,339.5C 351.507,331.016 351.174,322.349 351.5,313.5C 348.615,313.806 345.948,313.473 343.5,312.5C 342.523,309.713 342.19,306.713 342.5,303.5C 345.5,303.5 348.5,303.5 351.5,303.5 Z"/></g>
<g><path style="opacity:1" fill="#b79800" d="M 352.5,339.5 C 352.5,330.833 352.5,322.167 352.5,313.5C 355.167,313.5 357.833,313.5 360.5,313.5C 360.5,322.167 360.5,330.833 360.5,339.5C 357.833,339.5 355.167,339.5 352.5,339.5 Z"/></g>
<g><path style="opacity:1" fill="#b79701" d="M 343.5,312.5 C 343.5,309.833 343.5,307.167 343.5,304.5C 346.167,304.5 348.833,304.5 351.5,304.5C 351.5,307.167 351.5,309.833 351.5,312.5C 348.833,312.5 346.167,312.5 343.5,312.5 Z"/></g>
<g><path style="opacity:1" fill="#a46b05" d="M 433.5,322.5 C 436.167,322.5 438.833,322.5 441.5,322.5C 441.5,325.167 441.5,327.833 441.5,330.5C 438.833,330.5 436.167,330.5 433.5,330.5C 433.5,327.833 433.5,325.167 433.5,322.5 Z"/></g>
<g><path style="opacity:1" fill="#72521f" d="M 433.5,322.5 C 433.5,322.167 433.5,321.833 433.5,321.5C 436.167,321.5 438.833,321.5 441.5,321.5C 441.833,321.5 442.167,321.5 442.5,321.5C 442.5,321.833 442.5,322.167 442.5,322.5C 442.5,325.167 442.5,327.833 442.5,330.5C 442.167,330.5 441.833,330.5 441.5,330.5C 441.5,327.833 441.5,325.167 441.5,322.5C 438.833,322.5 436.167,322.5 433.5,322.5 Z"/></g>
<g><path style="opacity:1" fill="#cb9b2f" d="M 433.5,330.5 C 436.167,330.5 438.833,330.5 441.5,330.5C 441.833,330.5 442.167,330.5 442.5,330.5C 442.5,336.833 442.5,343.167 442.5,349.5C 439.5,349.5 436.5,349.5 433.5,349.5C 435.948,348.527 438.615,348.194 441.5,348.5C 441.5,342.833 441.5,337.167 441.5,331.5C 438.615,331.806 435.948,331.473 433.5,330.5 Z"/></g>
<g><path style="opacity:1" fill="#8a722a" d="M 189.5,340.5 C 195.645,339.51 201.978,339.177 208.5,339.5C 208.5,342.5 208.5,345.5 208.5,348.5C 211.5,348.5 214.5,348.5 217.5,348.5C 217.81,351.713 217.477,354.713 216.5,357.5C 216.5,354.833 216.5,352.167 216.5,349.5C 213.5,349.5 210.5,349.5 207.5,349.5C 207.5,349.167 207.5,348.833 207.5,348.5C 207.5,345.833 207.5,343.167 207.5,340.5C 201.5,340.5 195.5,340.5 189.5,340.5 Z"/></g>
<g><path style="opacity:1" fill="#fcc302" d="M 378.5,240.5 C 378.833,240.5 379.167,240.5 379.5,240.5C 384.975,241.489 390.642,241.822 396.5,241.5C 396.5,244.167 396.5,246.833 396.5,249.5C 393.615,249.194 390.948,249.527 388.5,250.5C 387.527,252.948 387.194,255.615 387.5,258.5C 384.5,258.5 381.5,258.5 378.5,258.5C 378.5,264.5 378.5,270.5 378.5,276.5C 375.5,276.5 372.5,276.5 369.5,276.5C 369.5,279.5 369.5,282.5 369.5,285.5C 366.5,285.5 363.5,285.5 360.5,285.5C 360.5,288.167 360.5,290.833 360.5,293.5C 357.615,293.194 354.948,293.527 352.5,294.5C 351.523,297.287 351.19,300.287 351.5,303.5C 348.5,303.5 345.5,303.5 342.5,303.5C 342.19,306.713 342.523,309.713 343.5,312.5C 345.948,313.473 348.615,313.806 351.5,313.5C 351.174,322.349 351.507,331.016 352.5,339.5C 354.948,340.473 357.615,340.806 360.5,340.5C 360.5,354.833 360.5,369.167 360.5,383.5C 357.833,383.5 355.167,383.5 352.5,383.5C 352.5,371.833 352.5,360.167 352.5,348.5C 349.5,348.5 346.5,348.5 343.5,348.5C 343.5,339.5 343.5,330.5 343.5,321.5C 340.5,321.5 337.5,321.5 334.5,321.5C 334.5,312.833 334.5,304.167 334.5,295.5C 337.5,295.5 340.5,295.5 343.5,295.5C 343.336,292.813 343.503,290.146 344,287.5C 346.381,286.565 348.881,286.232 351.5,286.5C 351.5,283.167 351.5,279.833 351.5,276.5C 354.5,276.5 357.5,276.5 360.5,276.5C 360.5,273.5 360.5,270.5 360.5,267.5C 363.5,267.5 366.5,267.5 369.5,267.5C 369.5,261.5 369.5,255.5 369.5,249.5C 372.833,249.5 376.167,249.5 379.5,249.5C 379.632,246.43 379.299,243.43 378.5,240.5 Z"/></g>
<g><path style="opacity:1" fill="#050202" d="M 189.5,340.5 C 195.5,340.5 201.5,340.5 207.5,340.5C 207.5,343.167 207.5,345.833 207.5,348.5C 204.5,348.5 201.5,348.5 198.5,348.5C 198.5,351.5 198.5,354.5 198.5,357.5C 195.5,357.5 192.5,357.5 189.5,357.5C 189.5,360.5 189.5,363.5 189.5,366.5C 186.833,366.5 184.167,366.5 181.5,366.5C 181.5,360.833 181.5,355.167 181.5,349.5C 184.385,349.806 187.052,349.473 189.5,348.5C 189.5,345.833 189.5,343.167 189.5,340.5 Z"/></g>
<g><path style="opacity:1" fill="#b59904" d="M 171.5,340.5 C 171.5,346.167 171.5,351.833 171.5,357.5C 168.833,357.5 166.167,357.5 163.5,357.5C 163.5,351.833 163.5,346.167 163.5,340.5C 166.167,340.5 168.833,340.5 171.5,340.5 Z"/></g>
<g><path style="opacity:0.738" fill="#bdb166" d="M 171.5,312.5 C 174.5,312.5 177.5,312.5 180.5,312.5C 180.5,312.833 180.5,313.167 180.5,313.5C 177.833,313.5 175.167,313.5 172.5,313.5C 172.5,322.167 172.5,330.833 172.5,339.5C 171.833,339.5 171.5,339.833 171.5,340.5C 168.833,340.5 166.167,340.5 163.5,340.5C 163.5,346.167 163.5,351.833 163.5,357.5C 162.833,357.5 162.5,357.833 162.5,358.5C 159.833,358.5 157.167,358.5 154.5,358.5C 154.736,361.609 154.403,364.609 153.5,367.5C 150.5,367.5 147.5,367.5 144.5,367.5C 144.5,367.167 144.5,366.833 144.5,366.5C 147.167,366.5 149.833,366.5 152.5,366.5C 150.828,358.847 153.828,355.847 161.5,357.5C 162.465,352.055 162.798,346.721 162.5,341.5C 162.868,340.09 163.701,339.09 165,338.5C 167,339.833 169,339.833 171,338.5C 171.5,329.84 171.666,321.173 171.5,312.5 Z"/></g>
<g><path style="opacity:1" fill="#b89701" d="M 361.5,384.5 C 361.5,369.833 361.5,355.167 361.5,340.5C 364.167,340.5 366.833,340.5 369.5,340.5C 369.5,355.167 369.5,369.833 369.5,384.5C 366.833,384.5 364.167,384.5 361.5,384.5 Z"/></g>
<g><path style="opacity:1" fill="#fcfcfc" d="M 207.5,349.5 C 207.5,352.167 207.5,354.833 207.5,357.5C 204.833,357.5 202.167,357.5 199.5,357.5C 199.5,354.833 199.5,352.167 199.5,349.5C 202.167,349.5 204.833,349.5 207.5,349.5 Z"/></g>
<g><path style="opacity:1" fill="#0c0a0c" d="M 207.5,349.5 C 210.5,349.5 213.5,349.5 216.5,349.5C 216.5,352.167 216.5,354.833 216.5,357.5C 213.5,357.5 210.5,357.5 207.5,357.5C 207.5,354.833 207.5,352.167 207.5,349.5 Z"/></g>
<g><path style="opacity:1" fill="#0a0705" d="M 306.5,349.5 C 306.5,352.167 306.5,354.833 306.5,357.5C 303.5,357.5 300.5,357.5 297.5,357.5C 297.5,360.5 297.5,363.5 297.5,366.5C 294.5,366.5 291.5,366.5 288.5,366.5C 288.5,369.5 288.5,372.5 288.5,375.5C 285.833,375.5 283.167,375.5 280.5,375.5C 280.5,369.833 280.5,364.167 280.5,358.5C 283.5,358.5 286.5,358.5 289.5,358.5C 289.5,355.5 289.5,352.5 289.5,349.5C 295.167,348.167 300.833,348.167 306.5,349.5 Z"/></g>
<g><path style="opacity:1" fill="#55431a" d="M 189.5,348.5 C 187.052,349.473 184.385,349.806 181.5,349.5C 181.5,355.167 181.5,360.833 181.5,366.5C 184.167,366.5 186.833,366.5 189.5,366.5C 190.167,366.5 190.5,366.833 190.5,367.5C 190.5,370.167 190.5,372.833 190.5,375.5C 193.167,375.5 195.833,375.5 198.5,375.5C 195.713,376.477 192.713,376.81 189.5,376.5C 189.5,373.5 189.5,370.5 189.5,367.5C 186.5,367.5 183.5,367.5 180.5,367.5C 180.5,361.167 180.5,354.833 180.5,348.5C 183.5,348.5 186.5,348.5 189.5,348.5 Z"/></g>
<g><path style="opacity:1" fill="#a1a1a0" d="M 207.5,348.5 C 207.5,348.833 207.5,349.167 207.5,349.5C 204.833,349.5 202.167,349.5 199.5,349.5C 199.5,352.167 199.5,354.833 199.5,357.5C 202.167,357.5 204.833,357.5 207.5,357.5C 207.5,357.833 207.5,358.167 207.5,358.5C 204.5,358.5 201.5,358.5 198.5,358.5C 198.5,358.167 198.5,357.833 198.5,357.5C 198.5,354.5 198.5,351.5 198.5,348.5C 201.5,348.5 204.5,348.5 207.5,348.5 Z"/></g>
<g><path style="opacity:1" fill="#9f6809" d="M 433.5,349.5 C 436.5,349.5 439.5,349.5 442.5,349.5C 442.5,352.5 442.5,355.5 442.5,358.5C 439.609,357.597 436.609,357.264 433.5,357.5C 433.5,354.833 433.5,352.167 433.5,349.5 Z"/></g>
<g><path style="opacity:1" fill="#735d24" d="M 289.5,349.5 C 289.5,352.5 289.5,355.5 289.5,358.5C 286.5,358.5 283.5,358.5 280.5,358.5C 282.948,357.527 285.615,357.194 288.5,357.5C 288.194,354.615 288.527,351.948 289.5,349.5 Z"/></g>
<g><path style="opacity:1" fill="#050207" d="M 198.5,358.5 C 201.5,358.5 204.5,358.5 207.5,358.5C 207.5,361.167 207.5,363.833 207.5,366.5C 204.5,366.5 201.5,366.5 198.5,366.5C 198.5,363.833 198.5,361.167 198.5,358.5 Z"/></g>
<g><path style="opacity:1" fill="#010102" d="M 307.5,358.5 C 310.167,358.5 312.833,358.5 315.5,358.5C 315.5,364.167 315.5,369.833 315.5,375.5C 312.5,375.5 309.5,375.5 306.5,375.5C 306.5,378.5 306.5,381.5 306.5,384.5C 300.833,384.5 295.167,384.5 289.5,384.5C 289.5,381.833 289.5,379.167 289.5,376.5C 292.187,376.664 294.854,376.497 297.5,376C 298.444,373.281 298.777,370.448 298.5,367.5C 301.5,367.5 304.5,367.5 307.5,367.5C 307.5,364.5 307.5,361.5 307.5,358.5 Z"/></g>
<g><path style="opacity:1" fill="#7d6526" d="M 306.5,349.5 C 307.473,351.948 307.806,354.615 307.5,357.5C 310.5,357.5 313.5,357.5 316.5,357.5C 316.823,363.69 316.49,369.69 315.5,375.5C 315.5,369.833 315.5,364.167 315.5,358.5C 312.833,358.5 310.167,358.5 307.5,358.5C 307.167,358.5 306.833,358.5 306.5,358.5C 306.5,358.167 306.5,357.833 306.5,357.5C 306.5,354.833 306.5,352.167 306.5,349.5 Z"/></g>
<g><path style="opacity:1" fill="#ba9c1c" d="M 433.5,357.5 C 436.609,357.264 439.609,357.597 442.5,358.5C 443.022,361.314 443.022,363.98 442.5,366.5C 439.5,366.5 436.5,366.5 433.5,366.5C 433.5,363.5 433.5,360.5 433.5,357.5 Z"/></g>
<g><path style="opacity:1" fill="#766124" d="M 280.5,358.5 C 280.5,364.167 280.5,369.833 280.5,375.5C 283.167,375.5 285.833,375.5 288.5,375.5C 289.167,375.5 289.5,375.833 289.5,376.5C 289.5,379.167 289.5,381.833 289.5,384.5C 295.167,384.5 300.833,384.5 306.5,384.5C 300.69,385.49 294.69,385.823 288.5,385.5C 288.5,382.5 288.5,379.5 288.5,376.5C 285.5,376.5 282.5,376.5 279.5,376.5C 279.177,370.31 279.51,364.31 280.5,358.5 Z"/></g>
<g><path style="opacity:1" fill="#a08030" d="M 207.5,357.5 C 210.5,357.5 213.5,357.5 216.5,357.5C 214.052,358.473 211.385,358.806 208.5,358.5C 208.806,361.385 208.473,364.052 207.5,366.5C 207.5,363.833 207.5,361.167 207.5,358.5C 207.5,358.167 207.5,357.833 207.5,357.5 Z"/></g>
<g><path style="opacity:1" fill="#36345f" d="M 198.5,357.5 C 198.5,357.833 198.5,358.167 198.5,358.5C 198.5,361.167 198.5,363.833 198.5,366.5C 195.946,367.388 193.279,367.721 190.5,367.5C 190.5,366.833 190.167,366.5 189.5,366.5C 189.5,363.5 189.5,360.5 189.5,357.5C 192.5,357.5 195.5,357.5 198.5,357.5 Z"/></g>
<g><path style="opacity:1" fill="#7f7f80" d="M 306.5,357.5 C 306.5,357.833 306.5,358.167 306.5,358.5C 306.833,358.5 307.167,358.5 307.5,358.5C 307.5,361.5 307.5,364.5 307.5,367.5C 304.5,367.5 301.5,367.5 298.5,367.5C 297.833,367.5 297.5,367.167 297.5,366.5C 297.5,363.5 297.5,360.5 297.5,357.5C 300.5,357.5 303.5,357.5 306.5,357.5 Z"/></g>
<g><path style="opacity:1" fill="#fefefe" d="M 306.5,358.5 C 306.5,361.167 306.5,363.833 306.5,366.5C 303.833,366.5 301.167,366.5 298.5,366.5C 298.5,363.833 298.5,361.167 298.5,358.5C 301.167,358.5 303.833,358.5 306.5,358.5 Z"/></g>
<g><path style="opacity:1" fill="#080202" d="M 144.5,367.5 C 147.5,367.5 150.5,367.5 153.5,367.5C 153.5,370.167 153.5,372.833 153.5,375.5C 150.5,375.5 147.5,375.5 144.5,375.5C 144.5,372.833 144.5,370.167 144.5,367.5 Z"/></g>
<g><path style="opacity:1" fill="#030102" d="M 198.5,366.5 C 198.5,369.5 198.5,372.5 198.5,375.5C 195.833,375.5 193.167,375.5 190.5,375.5C 190.5,372.833 190.5,370.167 190.5,367.5C 193.279,367.721 195.946,367.388 198.5,366.5 Z"/></g>
<g><path style="opacity:1" fill="#b79806" d="M 397.5,375.5 C 397.5,375.833 397.5,376.167 397.5,376.5C 397.5,379.167 397.5,381.833 397.5,384.5C 397.5,384.833 397.5,385.167 397.5,385.5C 397.5,388.167 397.5,390.833 397.5,393.5C 394.5,393.5 391.5,393.5 388.5,393.5C 388.5,384.5 388.5,375.5 388.5,366.5C 391.5,366.5 394.5,366.5 397.5,366.5C 397.5,369.5 397.5,372.5 397.5,375.5 Z"/></g>
<g><path style="opacity:1" fill="#b89a05" d="M 432.5,367.5 C 432.5,370.167 432.5,372.833 432.5,375.5C 429.833,375.5 427.167,375.5 424.5,375.5C 424.5,372.833 424.5,370.167 424.5,367.5C 427.167,367.5 429.833,367.5 432.5,367.5 Z"/></g>
<g><path style="opacity:1" fill="#030202" d="M 433.5,367.5 C 436.167,367.5 438.833,367.5 441.5,367.5C 441.5,370.167 441.5,372.833 441.5,375.5C 438.833,375.5 436.167,375.5 433.5,375.5C 433.5,372.833 433.5,370.167 433.5,367.5 Z"/></g>
<g><path style="opacity:1" fill="#b49821" d="M 144.5,366.5 C 144.5,366.833 144.5,367.167 144.5,367.5C 144.5,370.167 144.5,372.833 144.5,375.5C 147.5,375.5 150.5,375.5 153.5,375.5C 153.5,375.833 153.5,376.167 153.5,376.5C 147.5,376.5 141.5,376.5 135.5,376.5C 135.5,373.5 135.5,370.5 135.5,367.5C 138.287,366.523 141.287,366.19 144.5,366.5 Z"/></g>
<g><path style="opacity:1" fill="#313053" d="M 297.5,366.5 C 297.5,367.167 297.833,367.5 298.5,367.5C 298.777,370.448 298.444,373.281 297.5,376C 294.854,376.497 292.187,376.664 289.5,376.5C 289.5,375.833 289.167,375.5 288.5,375.5C 288.5,372.5 288.5,369.5 288.5,366.5C 291.5,366.5 294.5,366.5 297.5,366.5 Z"/></g>
<g><path style="opacity:0.829" fill="#4d463a" d="M 433.5,367.5 C 433.5,367.167 433.5,366.833 433.5,366.5C 436.5,366.5 439.5,366.5 442.5,366.5C 442.5,369.833 442.5,373.167 442.5,376.5C 439.5,376.5 436.5,376.5 433.5,376.5C 433.5,376.167 433.5,375.833 433.5,375.5C 436.167,375.5 438.833,375.5 441.5,375.5C 441.5,372.833 441.5,370.167 441.5,367.5C 438.833,367.5 436.167,367.5 433.5,367.5 Z"/></g>
<g><path style="opacity:1" fill="#a88135" d="M 198.5,366.5 C 201.5,366.5 204.5,366.5 207.5,366.5C 205.052,367.473 202.385,367.806 199.5,367.5C 199.806,370.385 199.473,373.052 198.5,375.5C 198.5,372.5 198.5,369.5 198.5,366.5 Z"/></g>
<g><path style="opacity:0.496" fill="#e5dd9c" d="M 135.5,367.5 C 135.5,370.5 135.5,373.5 135.5,376.5C 132.5,376.5 129.5,376.5 126.5,376.5C 127.172,375.733 128.005,375.066 129,374.5C 130.699,375.406 132.533,375.739 134.5,375.5C 134.194,372.615 134.527,369.948 135.5,367.5 Z"/></g>
<g><path style="opacity:1" fill="#7f6427" d="M 432.5,367.5 C 432.833,367.5 433.167,367.5 433.5,367.5C 433.5,370.167 433.5,372.833 433.5,375.5C 433.5,375.833 433.5,376.167 433.5,376.5C 421.5,376.5 409.5,376.5 397.5,376.5C 397.5,376.167 397.5,375.833 397.5,375.5C 406.5,375.5 415.5,375.5 424.5,375.5C 427.167,375.5 429.833,375.5 432.5,375.5C 432.5,372.833 432.5,370.167 432.5,367.5 Z"/></g>
<g><path style="opacity:1" fill="#e0772a" d="M 343.5,384.5 C 342.527,382.052 342.194,379.385 342.5,376.5C 339.287,376.19 336.287,376.523 333.5,377.5C 331.167,377.5 328.833,377.5 326.5,377.5C 326.5,379.833 326.5,382.167 326.5,384.5C 326.167,385.5 325.5,386.167 324.5,386.5C 322.167,386.5 319.833,386.5 317.5,386.5C 317.5,388.833 317.5,391.167 317.5,393.5C 316.912,396.61 316.245,399.61 315.5,402.5C 315.334,396.824 315.501,391.157 316,385.5C 318.719,384.556 321.552,384.223 324.5,384.5C 324.223,381.552 324.556,378.719 325.5,376C 331.491,375.501 337.491,375.334 343.5,375.5C 343.5,378.5 343.5,381.5 343.5,384.5 Z"/></g>
<g><path style="opacity:1" fill="#030203" d="M 397.5,376.5 C 409.5,376.5 421.5,376.5 433.5,376.5C 433.5,379.167 433.5,381.833 433.5,384.5C 421.5,384.5 409.5,384.5 397.5,384.5C 397.5,381.833 397.5,379.167 397.5,376.5 Z"/></g>
<g><path style="opacity:1" fill="#7e6928" d="M 315.5,375.5 C 313.052,376.473 310.385,376.806 307.5,376.5C 307.806,379.385 307.473,382.052 306.5,384.5C 306.5,381.5 306.5,378.5 306.5,375.5C 309.5,375.5 312.5,375.5 315.5,375.5 Z"/></g>
<g><path style="opacity:1" fill="#f25454" d="M 333.5,377.5 C 333.5,379.833 333.5,382.167 333.5,384.5C 331.167,384.5 328.833,384.5 326.5,384.5C 326.5,382.167 326.5,379.833 326.5,377.5C 328.833,377.5 331.167,377.5 333.5,377.5 Z"/></g>
<g><path style="opacity:1" fill="#fee666" d="M 234.5,384.5 C 231.833,384.5 229.167,384.5 226.5,384.5C 225.494,378.173 228.16,375.506 234.5,376.5C 240.988,375.48 243.321,377.98 241.5,384C 239.19,384.497 236.857,384.663 234.5,384.5 Z"/></g>
<g><path style="opacity:1" fill="#b99905" d="M 162.5,358.5 C 162.5,364.167 162.5,369.833 162.5,375.5C 165.713,375.19 168.713,375.523 171.5,376.5C 168.552,376.223 165.719,376.556 163,377.5C 162.5,386.16 162.334,394.827 162.5,403.5C 159.5,403.5 156.5,403.5 153.5,403.5C 153.5,400.5 153.5,397.5 153.5,394.5C 144.5,394.5 135.5,394.5 126.5,394.5C 127.675,388.886 127.675,383.219 126.5,377.5C 126.5,377.167 126.5,376.833 126.5,376.5C 129.5,376.5 132.5,376.5 135.5,376.5C 135.5,379.5 135.5,382.5 135.5,385.5C 141.5,385.5 147.5,385.5 153.5,385.5C 153.5,382.5 153.5,379.5 153.5,376.5C 153.5,376.167 153.5,375.833 153.5,375.5C 153.5,372.833 153.5,370.167 153.5,367.5C 154.403,364.609 154.736,361.609 154.5,358.5C 157.167,358.5 159.833,358.5 162.5,358.5 Z"/></g>
<g><path style="opacity:1" fill="#f8c207" d="M 135.5,376.5 C 141.5,376.5 147.5,376.5 153.5,376.5C 153.5,379.5 153.5,382.5 153.5,385.5C 147.5,385.5 141.5,385.5 135.5,385.5C 135.5,382.5 135.5,379.5 135.5,376.5 Z"/></g>
<g><path style="opacity:1" fill="#040101" d="M 352.5,385.5 C 355.167,385.5 357.833,385.5 360.5,385.5C 360.5,388.167 360.5,390.833 360.5,393.5C 357.833,393.5 355.167,393.5 352.5,393.5C 352.5,390.833 352.5,388.167 352.5,385.5 Z"/></g>
<g><path style="opacity:1" fill="#0f0f0f" d="M 442.5,385.5 C 442.5,391.5 442.5,397.5 442.5,403.5C 424.5,403.5 406.5,403.5 388.5,403.5C 388.167,403.5 387.833,403.5 387.5,403.5C 384.833,403.5 382.167,403.5 379.5,403.5C 379.5,400.5 379.5,397.5 379.5,394.5C 397.5,394.5 415.5,394.5 433.5,394.5C 433.5,391.5 433.5,388.5 433.5,385.5C 436.5,385.5 439.5,385.5 442.5,385.5 Z"/></g>
<g><path style="opacity:1" fill="#bfa104" d="M 226.5,384.5 C 229.167,384.5 231.833,384.5 234.5,384.5C 235.414,387.728 235.747,391.061 235.5,394.5C 232.167,394.5 228.833,394.5 225.5,394.5C 225.187,390.958 225.521,387.625 226.5,384.5 Z"/></g>
<g><path style="opacity:1" fill="#fdda12" d="M 424.5,385.5 C 427.167,385.5 429.833,385.5 432.5,385.5C 432.5,388.167 432.5,390.833 432.5,393.5C 429.833,393.5 427.167,393.5 424.5,393.5C 424.5,390.833 424.5,388.167 424.5,385.5 Z"/></g>
<g><path style="opacity:1" fill="#f15453" d="M 324.5,386.5 C 324.5,388.833 324.5,391.167 324.5,393.5C 322.167,393.5 319.833,393.5 317.5,393.5C 317.5,391.167 317.5,388.833 317.5,386.5C 319.833,386.5 322.167,386.5 324.5,386.5 Z"/></g>
<g><path style="opacity:1" fill="#d26a23" d="M 171.5,376.5 C 172.265,379.096 172.599,381.763 172.5,384.5C 175.385,384.194 178.052,384.527 180.5,385.5C 180.5,391.5 180.5,397.5 180.5,403.5C 180.167,403.5 179.833,403.5 179.5,403.5C 179.5,397.833 179.5,392.167 179.5,386.5C 176.813,386.664 174.146,386.497 171.5,386C 170.556,383.281 170.223,380.448 170.5,377.5C 168.208,377.244 166.041,377.577 164,378.5C 163.501,383.823 163.334,389.156 163.5,394.5C 163.5,397.167 163.5,399.833 163.5,402.5C 166.167,402.5 168.833,402.5 171.5,402.5C 171.5,403.167 171.833,403.5 172.5,403.5C 172.5,406.167 172.5,408.833 172.5,411.5C 175.167,411.5 177.833,411.5 180.5,411.5C 180.5,411.833 180.5,412.167 180.5,412.5C 177.5,412.5 174.5,412.5 171.5,412.5C 170.612,409.946 170.279,407.279 170.5,404.5C 167.721,404.721 165.054,404.388 162.5,403.5C 162.334,394.827 162.5,386.16 163,377.5C 165.719,376.556 168.552,376.223 171.5,376.5 Z"/></g>
<g><path style="opacity:1" fill="#75551f" d="M 351.5,385.5 C 351.5,385.167 351.5,384.833 351.5,384.5C 354.5,384.5 357.5,384.5 360.5,384.5C 360.833,384.5 361.167,384.5 361.5,384.5C 361.5,384.833 361.5,385.167 361.5,385.5C 361.5,388.5 361.5,391.5 361.5,394.5C 358.5,394.5 355.5,394.5 352.5,394.5C 352.5,394.167 352.5,393.833 352.5,393.5C 355.167,393.5 357.833,393.5 360.5,393.5C 360.5,390.833 360.5,388.167 360.5,385.5C 357.833,385.5 355.167,385.5 352.5,385.5C 352.167,385.5 351.833,385.5 351.5,385.5 Z"/></g>
<g><path style="opacity:1" fill="#6f2f1c" d="M 351.5,385.5 C 351.833,385.5 352.167,385.5 352.5,385.5C 352.5,388.167 352.5,390.833 352.5,393.5C 352.5,393.833 352.5,394.167 352.5,394.5C 352.167,394.5 351.833,394.5 351.5,394.5C 348.833,394.5 346.167,394.5 343.5,394.5C 343.5,397.167 343.5,399.833 343.5,402.5C 342.527,400.052 342.194,397.385 342.5,394.5C 345.287,393.523 348.287,393.19 351.5,393.5C 351.5,390.833 351.5,388.167 351.5,385.5 Z"/></g>
<g><path style="opacity:1" fill="#fcda13" d="M 397.5,385.5 C 403.5,385.5 409.5,385.5 415.5,385.5C 415.5,388.167 415.5,390.833 415.5,393.5C 409.5,393.5 403.5,393.5 397.5,393.5C 397.5,390.833 397.5,388.167 397.5,385.5 Z"/></g>
<g><path style="opacity:1" fill="#b89b06" d="M 415.5,385.5 C 418.5,385.5 421.5,385.5 424.5,385.5C 424.5,388.167 424.5,390.833 424.5,393.5C 421.5,393.5 418.5,393.5 415.5,393.5C 415.5,390.833 415.5,388.167 415.5,385.5 Z"/></g>
<g><path style="opacity:1" fill="#ef5250" d="M 179.5,403.5 C 177.167,403.5 174.833,403.5 172.5,403.5C 171.833,403.5 171.5,403.167 171.5,402.5C 168.833,402.5 166.167,402.5 163.5,402.5C 163.5,399.833 163.5,397.167 163.5,394.5C 163.334,389.156 163.501,383.823 164,378.5C 166.041,377.577 168.208,377.244 170.5,377.5C 170.223,380.448 170.556,383.281 171.5,386C 174.146,386.497 176.813,386.664 179.5,386.5C 179.5,392.167 179.5,397.833 179.5,403.5 Z"/></g>
<g><path style="opacity:0.484" fill="#d3c87e" d="M 126.5,377.5 C 127.675,383.219 127.675,388.886 126.5,394.5C 120.5,394.5 114.5,394.5 108.5,394.5C 113.975,393.511 119.642,393.178 125.5,393.5C 125.33,387.905 125.663,382.572 126.5,377.5 Z"/></g>
<g><path style="opacity:1" fill="#826d32" d="M 397.5,385.5 C 397.5,385.167 397.5,384.833 397.5,384.5C 409.5,384.5 421.5,384.5 433.5,384.5C 436.713,384.19 439.713,384.523 442.5,385.5C 439.5,385.5 436.5,385.5 433.5,385.5C 433.5,388.5 433.5,391.5 433.5,394.5C 415.5,394.5 397.5,394.5 379.5,394.5C 382.287,393.523 385.287,393.19 388.5,393.5C 391.5,393.5 394.5,393.5 397.5,393.5C 403.5,393.5 409.5,393.5 415.5,393.5C 418.5,393.5 421.5,393.5 424.5,393.5C 427.167,393.5 429.833,393.5 432.5,393.5C 432.5,390.833 432.5,388.167 432.5,385.5C 429.833,385.5 427.167,385.5 424.5,385.5C 421.5,385.5 418.5,385.5 415.5,385.5C 409.5,385.5 403.5,385.5 397.5,385.5 Z"/></g>
<g><path style="opacity:1" fill="#fdd703" d="M 126.5,394.5 C 135.5,394.5 144.5,394.5 153.5,394.5C 153.5,397.5 153.5,400.5 153.5,403.5C 153.5,406.5 153.5,409.5 153.5,412.5C 138.5,412.5 123.5,412.5 108.5,412.5C 108.5,409.5 108.5,406.5 108.5,403.5C 114.5,403.5 120.5,403.5 126.5,403.5C 126.5,400.5 126.5,397.5 126.5,394.5 Z"/></g>
<g><path style="opacity:1" fill="#060102" d="M 351.5,394.5 C 351.5,397.167 351.5,399.833 351.5,402.5C 348.833,402.5 346.167,402.5 343.5,402.5C 343.5,399.833 343.5,397.167 343.5,394.5C 346.167,394.5 348.833,394.5 351.5,394.5 Z"/></g>
<g><path style="opacity:1" fill="#c22219" d="M 343.5,384.5 C 346.167,384.5 348.833,384.5 351.5,384.5C 351.5,384.833 351.5,385.167 351.5,385.5C 351.5,388.167 351.5,390.833 351.5,393.5C 348.287,393.19 345.287,393.523 342.5,394.5C 339.833,394.5 337.167,394.5 334.5,394.5C 334.777,397.448 334.444,400.281 333.5,403C 327.843,403.499 322.176,403.666 316.5,403.5C 316.167,403.5 315.833,403.5 315.5,403.5C 315.5,403.167 315.5,402.833 315.5,402.5C 316.245,399.61 316.912,396.61 317.5,393.5C 319.833,393.5 322.167,393.5 324.5,393.5C 324.5,391.167 324.5,388.833 324.5,386.5C 325.5,386.167 326.167,385.5 326.5,384.5C 328.833,384.5 331.167,384.5 333.5,384.5C 333.5,382.167 333.5,379.833 333.5,377.5C 336.287,376.523 339.287,376.19 342.5,376.5C 342.194,379.385 342.527,382.052 343.5,384.5 Z"/></g>
<g><path style="opacity:1" fill="#c11c19" d="M 163.5,394.5 C 166.167,394.5 168.833,394.5 171.5,394.5C 171.5,397.167 171.5,399.833 171.5,402.5C 171.5,399.833 171.5,397.167 171.5,394.5C 168.833,394.5 166.167,394.5 163.5,394.5 Z"/></g>
<g><path style="opacity:1" fill="#e1a730" d="M 180.5,385.5 C 181.493,393.984 181.826,402.651 181.5,411.5C 184.385,411.194 187.052,411.527 189.5,412.5C 186.5,412.5 183.5,412.5 180.5,412.5C 180.5,412.167 180.5,411.833 180.5,411.5C 180.5,408.833 180.5,406.167 180.5,403.5C 180.5,397.5 180.5,391.5 180.5,385.5 Z"/></g>
<g><path style="opacity:1" fill="#b69b07" d="M 108.5,394.5 C 114.5,394.5 120.5,394.5 126.5,394.5C 126.5,397.5 126.5,400.5 126.5,403.5C 120.5,403.5 114.5,403.5 108.5,403.5C 108.5,400.5 108.5,397.5 108.5,394.5 Z"/></g>
<g><path style="opacity:0.478" fill="#e5df9f" d="M 108.5,394.5 C 108.5,397.5 108.5,400.5 108.5,403.5C 105.5,403.5 102.5,403.5 99.5,403.5C 101.948,402.527 104.615,402.194 107.5,402.5C 107.194,399.615 107.527,396.948 108.5,394.5 Z"/></g>
<g><path style="opacity:1" fill="#755220" d="M 351.5,394.5 C 351.833,394.5 352.167,394.5 352.5,394.5C 352.5,397.5 352.5,400.5 352.5,403.5C 349.5,403.5 346.5,403.5 343.5,403.5C 343.5,403.167 343.5,402.833 343.5,402.5C 346.167,402.5 348.833,402.5 351.5,402.5C 351.5,399.833 351.5,397.167 351.5,394.5 Z"/></g>
<g><path style="opacity:1" fill="#100c08" d="M 307.5,403.5 C 310.167,403.5 312.833,403.5 315.5,403.5C 315.833,403.5 316.167,403.5 316.5,403.5C 316.806,406.385 316.473,409.052 315.5,411.5C 312.833,411.5 310.167,411.5 307.5,411.5C 307.5,408.833 307.5,406.167 307.5,403.5 Z"/></g>
<g><path style="opacity:1" fill="#be1f15" d="M 172.5,403.5 C 174.833,403.5 177.167,403.5 179.5,403.5C 179.833,403.5 180.167,403.5 180.5,403.5C 180.5,406.167 180.5,408.833 180.5,411.5C 177.833,411.5 175.167,411.5 172.5,411.5C 172.5,408.833 172.5,406.167 172.5,403.5 Z"/></g>
<g><path style="opacity:1" fill="#b3982a" d="M 99.5,403.5 C 102.5,403.5 105.5,403.5 108.5,403.5C 108.5,406.5 108.5,409.5 108.5,412.5C 108.5,415.167 108.5,417.833 108.5,420.5C 129.5,420.5 150.5,420.5 171.5,420.5C 174.5,420.5 177.5,420.5 180.5,420.5C 156.5,421.167 132.5,421.833 108.5,422.5C 105.328,421.874 102.161,421.207 99,420.5C 98.1816,414.651 98.3483,408.985 99.5,403.5 Z"/></g>
<g><path style="opacity:1" fill="#bc9b05" d="M 342.5,394.5 C 342.194,397.385 342.527,400.052 343.5,402.5C 343.5,402.833 343.5,403.167 343.5,403.5C 343.5,406.5 343.5,409.5 343.5,412.5C 334.167,412.5 324.833,412.5 315.5,412.5C 315.5,412.167 315.5,411.833 315.5,411.5C 316.473,409.052 316.806,406.385 316.5,403.5C 322.176,403.666 327.843,403.499 333.5,403C 334.444,400.281 334.777,397.448 334.5,394.5C 337.167,394.5 339.833,394.5 342.5,394.5 Z"/></g>
<g><path style="opacity:1" fill="#fde667" d="M 209.5,404.5 C 214.5,404.5 219.5,404.5 224.5,404.5C 224.5,406.5 224.5,408.5 224.5,410.5C 219.507,410.916 214.507,411.249 209.5,411.5C 209.5,409.167 209.5,406.833 209.5,404.5 Z"/></g>
<g><path style="opacity:1" fill="#fcc305" d="M 153.5,403.5 C 156.5,403.5 159.5,403.5 162.5,403.5C 162.5,406.5 162.5,409.5 162.5,412.5C 165.5,412.5 168.5,412.5 171.5,412.5C 171.5,415.167 171.5,417.833 171.5,420.5C 150.5,420.5 129.5,420.5 108.5,420.5C 108.5,417.833 108.5,415.167 108.5,412.5C 123.5,412.5 138.5,412.5 153.5,412.5C 153.5,409.5 153.5,406.5 153.5,403.5 Z"/></g>
<g><path style="opacity:1" fill="#be9a04" d="M 162.5,403.5 C 165.054,404.388 167.721,404.721 170.5,404.5C 170.279,407.279 170.612,409.946 171.5,412.5C 168.5,412.5 165.5,412.5 162.5,412.5C 162.5,409.5 162.5,406.5 162.5,403.5 Z"/></g>
<g><path style="opacity:0.549" fill="#c9be6e" d="M 387.5,403.5 C 387.833,403.5 388.167,403.5 388.5,403.5C 388.892,406.324 388.892,409.324 388.5,412.5C 385.813,412.336 383.146,412.503 380.5,413C 379.556,415.719 379.223,418.552 379.5,421.5C 376.813,421.336 374.146,421.503 371.5,422C 370.556,424.719 370.223,427.552 370.5,430.5C 367.5,430.5 364.5,430.5 361.5,430.5C 361.5,430.167 361.5,429.833 361.5,429.5C 364.167,429.5 366.833,429.5 369.5,429.5C 369.5,426.833 369.5,424.167 369.5,421.5C 370.167,421.5 370.5,421.167 370.5,420.5C 373.167,420.5 375.833,420.5 378.5,420.5C 378.336,417.813 378.503,415.146 379,412.5C 381.719,411.556 384.552,411.223 387.5,411.5C 387.5,408.833 387.5,406.167 387.5,403.5 Z"/></g>
<g><path style="opacity:1" fill="#020101" d="M 180.5,412.5 C 183.5,412.5 186.5,412.5 189.5,412.5C 189.5,415.5 189.5,418.5 189.5,421.5C 222.5,421.5 255.5,421.5 288.5,421.5C 288.5,424.167 288.5,426.833 288.5,429.5C 228.5,429.5 168.5,429.5 108.5,429.5C 108.5,427.167 108.5,424.833 108.5,422.5C 132.5,421.833 156.5,421.167 180.5,420.5C 180.5,417.833 180.5,415.167 180.5,412.5 Z"/></g>
<g><path style="opacity:1" fill="#b69b04" d="M 216.5,420.5 C 213.5,420.5 210.5,420.5 207.5,420.5C 207.5,417.833 207.5,415.167 207.5,412.5C 210.5,412.5 213.5,412.5 216.5,412.5C 216.5,415.167 216.5,417.833 216.5,420.5 Z"/></g>
<g><path style="opacity:1" fill="#7d6324" d="M 307.5,403.5 C 307.5,406.167 307.5,408.833 307.5,411.5C 310.167,411.5 312.833,411.5 315.5,411.5C 315.5,411.833 315.5,412.167 315.5,412.5C 312.833,412.5 310.167,412.5 307.5,412.5C 307.5,415.5 307.5,418.5 307.5,421.5C 304.167,421.5 300.833,421.5 297.5,421.5C 297.19,418.287 297.523,415.287 298.5,412.5C 300.948,411.527 303.615,411.194 306.5,411.5C 306.194,408.615 306.527,405.948 307.5,403.5 Z"/></g>
<g><path style="opacity:1" fill="#020002" d="M 298.5,412.5 C 301.167,412.5 303.833,412.5 306.5,412.5C 306.5,415.167 306.5,417.833 306.5,420.5C 303.833,420.5 301.167,420.5 298.5,420.5C 298.5,417.833 298.5,415.167 298.5,412.5 Z"/></g>
<g><path style="opacity:1" fill="#b89b0b" d="M 379.5,394.5 C 379.5,397.5 379.5,400.5 379.5,403.5C 382.167,403.5 384.833,403.5 387.5,403.5C 387.5,406.167 387.5,408.833 387.5,411.5C 384.552,411.223 381.719,411.556 379,412.5C 378.503,415.146 378.336,417.813 378.5,420.5C 375.833,420.5 373.167,420.5 370.5,420.5C 370.5,417.5 370.5,414.5 370.5,411.5C 373.167,411.5 375.833,411.5 378.5,411.5C 378.178,405.642 378.511,399.975 379.5,394.5 Z"/></g>
<g><path style="opacity:1" fill="#b69b0b" d="M 171.5,412.5 C 174.5,412.5 177.5,412.5 180.5,412.5C 180.5,415.167 180.5,417.833 180.5,420.5C 177.5,420.5 174.5,420.5 171.5,420.5C 171.5,417.833 171.5,415.167 171.5,412.5 Z"/></g>
<g><path style="opacity:1" fill="#968132" d="M 189.5,412.5 C 190.473,414.948 190.806,417.615 190.5,420.5C 196.167,420.5 201.833,420.5 207.5,420.5C 210.5,420.5 213.5,420.5 216.5,420.5C 240.672,420.169 264.672,420.502 288.5,421.5C 255.5,421.5 222.5,421.5 189.5,421.5C 189.5,418.5 189.5,415.5 189.5,412.5 Z"/></g>
<g><path style="opacity:1" fill="#ba9a03" d="M 343.5,429.5 C 340.5,429.5 337.5,429.5 334.5,429.5C 334.5,426.833 334.5,424.167 334.5,421.5C 337.5,421.5 340.5,421.5 343.5,421.5C 343.5,424.167 343.5,426.833 343.5,429.5 Z"/></g>
<g><path style="opacity:1" fill="#ae9114" d="M 289.5,421.5 C 292.167,421.5 294.833,421.5 297.5,421.5C 297.5,424.167 297.5,426.833 297.5,429.5C 300.833,429.5 304.167,429.5 307.5,429.5C 310.167,429.5 312.833,429.5 315.5,429.5C 321.833,429.5 328.167,429.5 334.5,429.5C 337.5,429.5 340.5,429.5 343.5,429.5C 346.167,429.5 348.833,429.5 351.5,429.5C 351.5,429.833 351.5,430.167 351.5,430.5C 333.833,430.5 316.167,430.5 298.5,430.5C 297.527,432.948 297.194,435.615 297.5,438.5C 294.833,438.5 292.167,438.5 289.5,438.5C 289.5,435.833 289.5,433.167 289.5,430.5C 289.5,427.5 289.5,424.5 289.5,421.5 Z"/></g>
<g><path style="opacity:1" fill="#b89904" d="M 307.5,421.5 C 310.167,421.5 312.833,421.5 315.5,421.5C 315.5,424.167 315.5,426.833 315.5,429.5C 312.833,429.5 310.167,429.5 307.5,429.5C 307.5,426.833 307.5,424.167 307.5,421.5 Z"/></g>
<g><path style="opacity:1" fill="#b3950f" d="M 352.5,421.5 C 358,420.6 363.667,420.6 369.5,421.5C 369.5,424.167 369.5,426.833 369.5,429.5C 366.833,429.5 364.167,429.5 361.5,429.5C 361.806,426.615 361.473,423.948 360.5,421.5C 357.833,421.5 355.167,421.5 352.5,421.5 Z"/></g>
<g><path style="opacity:1" fill="#f5c113" d="M 297.5,421.5 C 300.833,421.5 304.167,421.5 307.5,421.5C 307.5,424.167 307.5,426.833 307.5,429.5C 304.167,429.5 300.833,429.5 297.5,429.5C 297.5,426.833 297.5,424.167 297.5,421.5 Z"/></g>
<g><path style="opacity:0.592" fill="#5b5b58" d="M 288.5,421.5 C 288.833,421.5 289.167,421.5 289.5,421.5C 289.5,424.5 289.5,427.5 289.5,430.5C 289.167,430.5 288.833,430.5 288.5,430.5C 228.331,430.832 168.331,430.499 108.5,429.5C 168.5,429.5 228.5,429.5 288.5,429.5C 288.5,426.833 288.5,424.167 288.5,421.5 Z"/></g>
<g><path style="opacity:0.675" fill="#cfc77a" d="M 288.5,430.5 C 288.833,430.5 289.167,430.5 289.5,430.5C 289.5,433.167 289.5,435.833 289.5,438.5C 292.167,438.5 294.833,438.5 297.5,438.5C 297.5,438.833 297.5,439.167 297.5,439.5C 294.72,439.945 292.053,439.945 289.5,439.5C 288.516,436.572 288.183,433.572 288.5,430.5 Z"/></g>
<g><path style="opacity:0.642" fill="#5e584d" d="M 352.5,421.5 C 352.5,424.167 352.5,426.833 352.5,429.5C 355.167,429.5 357.833,429.5 360.5,429.5C 360.5,426.833 360.5,424.167 360.5,421.5C 361.473,423.948 361.806,426.615 361.5,429.5C 361.5,429.833 361.5,430.167 361.5,430.5C 358.5,430.5 355.5,430.5 352.5,430.5C 352.5,433.5 352.5,436.5 352.5,439.5C 334.167,439.5 315.833,439.5 297.5,439.5C 297.5,439.167 297.5,438.833 297.5,438.5C 297.194,435.615 297.527,432.948 298.5,430.5C 298.5,433.167 298.5,435.833 298.5,438.5C 316.167,438.5 333.833,438.5 351.5,438.5C 351.5,435.833 351.5,433.167 351.5,430.5C 351.5,430.167 351.5,429.833 351.5,429.5C 351.194,426.615 351.527,423.948 352.5,421.5 Z"/></g>
<g><path style="opacity:1" fill="#010000" d="M 298.5,430.5 C 316.167,430.5 333.833,430.5 351.5,430.5C 351.5,433.167 351.5,435.833 351.5,438.5C 333.833,438.5 316.167,438.5 298.5,438.5C 298.5,435.833 298.5,433.167 298.5,430.5 Z"/></g>
<g><path style="opacity:1" fill="#030101" d="M 352.5,421.5 C 355.167,421.5 357.833,421.5 360.5,421.5C 360.5,424.167 360.5,426.833 360.5,429.5C 357.833,429.5 355.167,429.5 352.5,429.5C 352.5,426.833 352.5,424.167 352.5,421.5 Z"/></g>
</svg>
